<svg width="40" height="39" viewBox="0 0 40 39" fill="none" xmlns="http://www.w3.org/2000/svg">
<g clip-path="url(#clip0)">
<path d="M13.5992 1.47818C4.71087 4.99562 1.17366 14.9 2.55408 21.3794C2.80622 22.0144 3.22797 21.9654 3.74948 21.5146C5.56887 19.6411 7.83087 19.0367 10.4684 19.5282C10.7299 19.57 10.997 19.5596 11.2547 19.4976C11.9279 19.3374 12.5162 18.9218 12.9 18.335C16.7247 12.6534 25.633 9.98111 28.4655 10.692C28.5895 10.7252 28.7019 10.7931 28.7902 10.8879C28.8785 10.9827 28.9391 11.1008 28.9652 11.2289C29.5013 13.6503 27.4016 22.7559 21.1652 26.9972C20.2583 27.6257 20.0769 28.1727 20.0832 28.6633C20.7181 31.9132 20.0433 34.4615 17.9654 36.261C17.5899 36.6914 17.7677 37.2079 18.4788 37.3208C31.7107 39.0342 43.6111 26.1483 38.133 11.5038C33.0385 0.415543 22.3135 -2.0087 13.5992 1.47818Z" fill="white"/>
<path d="M22.2872 21.0431C23.5404 20.2526 23.9283 18.575 23.1538 17.2961C22.3792 16.0172 20.7355 15.6212 19.4824 16.4117C18.2292 17.2022 17.8413 18.8798 18.6158 20.1587C19.3904 21.4376 21.0341 21.8335 22.2872 21.0431Z" fill="white"/>
<path d="M2.02107 30.2074L5.77323 26.3651C5.87401 26.2648 5.95429 26.1451 6.0094 26.0129C6.06451 25.8807 6.09337 25.7386 6.0943 25.595C6.08886 24.9868 5.59365 24.7313 5.06216 24.8924C4.86911 24.9538 4.69419 25.0636 4.55335 25.2117L0.790304 29.0411C0.708005 29.1209 0.64015 29.2149 0.589861 29.3188C0.290559 29.9788 0.798466 30.7795 1.58754 30.4934C1.75097 30.432 1.89904 30.3343 2.02107 30.2074Z" fill="white"/>
<path d="M11.7537 28.406C11.9559 27.5304 10.9737 27.0241 10.288 27.7072L2.01455 36.4027C0.914386 37.469 2.03813 38.876 3.17004 37.6513L11.4507 28.9503C11.5985 28.8005 11.7033 28.6123 11.7537 28.406Z" fill="white"/>
<path d="M13.5678 33.0712C13.4329 33.071 13.2994 33.0991 13.1755 33.1537C13.0516 33.2083 12.94 33.2883 12.8477 33.3887L9.0139 37.4153C8.91501 37.5147 8.83288 37.6301 8.77083 37.7568C8.31734 38.7065 9.35674 39.4831 10.1948 38.6362L14.0177 34.5522C14.1255 34.441 14.2058 34.3051 14.252 34.1559C14.2982 34.0067 14.309 33.8485 14.2834 33.6942C14.2599 33.5188 14.1739 33.3584 14.042 33.2435C13.91 33.1286 13.7412 33.0673 13.5678 33.0712Z" fill="white"/>
<path opacity="0.3" d="M16.2958 11.4983C18.1487 11.4983 19.6507 9.96533 19.6507 8.07433C19.6507 6.18334 18.1487 4.65039 16.2958 4.65039C14.443 4.65039 12.9409 6.18334 12.9409 8.07433C12.9409 9.96533 14.443 11.4983 16.2958 11.4983Z" fill="#D3D3D3"/>
<path opacity="0.3" d="M9.41176 16.3292C10.4441 16.3292 11.281 15.475 11.281 14.4214C11.281 13.3678 10.4441 12.5137 9.41176 12.5137C8.37939 12.5137 7.54248 13.3678 7.54248 14.4214C7.54248 15.475 8.37939 16.3292 9.41176 16.3292Z" fill="#D3D3D3"/>
<path opacity="0.3" d="M37.6389 10.6199C39.9354 15.4499 39.9063 20.5242 38.4751 24.9062C35.9165 32.7612 27.6367 38.2993 18.5806 37.3375C28.7251 32.6695 35.9637 23.1299 37.6389 10.6199Z" fill="#D3D3D3"/>
</g>
<defs>
<clipPath id="clip0">
<rect width="39" height="39" fill="white" transform="translate(0.5)"/>
</clipPath>
</defs>
</svg>
