<svg width="72" height="72" viewBox="0 0 72 72" fill="none" xmlns="http://www.w3.org/2000/svg">
<g clip-path="url(#clip0_762:4819)">
<path d="M26.3311 27.5445L35.0326 12.0339L43.3551 27.1655L59.0156 35.8642L43.7342 44.1867L35.3353 59.7737L26.3311 44.2631L11.126 35.9038L26.3311 27.5445Z" fill="#090909"/>
<path d="M45.9116 29.0637C47.5834 27.2957 49.2808 25.5503 50.8989 23.7341C52.8479 21.5446 54.6895 19.2561 56.6528 17.0779C57.5297 16.1076 58.1266 14.9732 59.0884 13.7794C58.1379 13.9039 57.6909 14.365 57.2355 14.8148C55.1195 16.9006 52.9998 18.9826 50.8762 21.0609C50.611 21.3248 50.3274 21.5697 50.0276 21.7936C48.9922 22.5573 47.9597 22.4612 47.111 21.539C46.3133 20.6733 46.2454 19.4428 47.0912 18.5771C49.2921 16.3141 51.5071 14.0821 53.7956 11.918C56.1718 9.67192 58.6499 7.53896 61.0573 5.32679C62.9832 3.58286 65.0402 1.98931 67.21 0.560183C68.3416 -0.195121 69.739 -0.0961158 70.9809 0.325383C72.0926 0.701621 72.3388 2.6903 71.5665 4.25749C70.0021 7.43712 67.7956 10.1981 65.6485 12.9704C61.5976 18.2113 57.3307 23.273 52.8479 28.1556C51.7984 29.2872 46.0926 35.6691 44.1351 37.5305C43.6315 38.0085 28.831 52.3084 27.1054 53.8303C20.5368 59.621 13.9993 65.4484 6.62162 70.2377C5.47311 70.9817 4.35854 71.8077 2.85359 71.8133C0.548076 71.8133 -0.560836 70.2348 0.307623 68.0651C1.13082 66.0142 2.4434 64.2744 3.82671 62.58C6.77721 58.976 9.9427 55.5701 13.1393 52.1811C14.896 50.3197 16.7065 48.5036 18.4915 46.6762C18.8307 46.2955 19.2869 46.0383 19.7882 45.9451C20.2895 45.8519 20.8076 45.928 21.2609 46.1613C22.2765 46.6083 22.466 47.4569 22.3925 48.4583C22.3421 48.8747 22.1408 49.2582 21.8267 49.5361C20.0247 51.4116 18.2369 53.3013 16.4179 55.1655C14.401 57.2306 12.4377 59.3409 10.7602 61.7681C11.4986 61.2363 12.2793 60.7497 12.9724 60.1613C18.2312 55.6832 23.5523 51.2787 28.5651 46.5206C29.2468 45.8756 43.012 32.0227 44.2284 30.7638C44.7235 30.2207 45.5438 29.4513 45.9116 29.0637Z" fill="#4FB5F9"/>
<path d="M19.6516 23.5842C20.9187 23.5842 21.9458 22.5571 21.9458 21.29C21.9458 20.023 20.9187 18.9958 19.6516 18.9958C18.3846 18.9958 17.3574 20.023 17.3574 21.29C17.3574 22.5571 18.3846 23.5842 19.6516 23.5842Z" fill="#090909"/>
<path d="M50.9905 51.6238C52.2575 51.6238 53.2847 50.5967 53.2847 49.3296C53.2847 48.0625 52.2575 47.0354 50.9905 47.0354C49.7234 47.0354 48.6963 48.0625 48.6963 49.3296C48.6963 50.5967 49.7234 51.6238 50.9905 51.6238Z" fill="#090909"/>
</g>
<defs>
<clipPath id="clip0_762:4819">
<rect width="72" height="71.8076" fill="white"/>
</clipPath>
</defs>
</svg>
