<?xml version="1.0" encoding="utf-8"?>
<!-- Generator: Adobe Illustrator 22.0.0, SVG Export Plug-In . SVG Version: 6.00 Build 0)  -->
<svg version="1.1" id="Camada_1" xmlns="http://www.w3.org/2000/svg" xmlns:xlink="http://www.w3.org/1999/xlink" x="0px" y="0px"
	 viewBox="0 0 1175.2 1156" style="enable-background:new 0 0 1175.2 1156;" xml:space="preserve">
<style type="text/css">
	.st0{fill:none;stroke:#4D4D4D;stroke-width:7;stroke-miterlimit:10;}
	.st1{fill:#666666;}
	.st2{fill:none;stroke:#333333;stroke-width:2;stroke-linecap:round;stroke-linejoin:round;}
	.st3{fill:#FF5733;}
	.st4{fill:#FFC300;}
	.st5{opacity:0.29;}
	.st6{fill:#ED1C24;}
	.st7{fill:url(#SVGID_1_);}
	.st8{fill:#662D91;}
	.st9{opacity:0.54;fill:#FF5733;enable-background:new    ;}
	.st10{opacity:0.29;fill:#FF5733;enable-background:new    ;}
	.st11{fill:#FF9F00;}
	.st12{fill:none;}
	.st13{fill:#330000;}
	.st14{opacity:0.47;fill:#FFFFD4;enable-background:new    ;}
	.st15{opacity:0.79;fill:#330000;enable-background:new    ;}
	.st16{opacity:0.68;fill:#ED1C24;enable-background:new    ;}
	.st17{opacity:0.51;fill:#1F2CFF;stroke:#FF5733;stroke-miterlimit:10;enable-background:new    ;}
	.st18{fill:#666666;stroke:#666666;stroke-miterlimit:10;}
	.st19{opacity:0.33;fill:#ED1C24;enable-background:new    ;}
	.st20{opacity:0.36;fill:#333333;enable-background:new    ;}
	.st21{opacity:0.33;enable-background:new    ;}
	.st22{opacity:0.67;fill:#DF68FF;enable-background:new    ;}
	.st23{opacity:0.49;fill:#DF68FF;enable-background:new    ;}
	.st24{opacity:0.33;fill:#831C24;enable-background:new    ;}
	.st25{opacity:0.65;enable-background:new    ;}
	.st26{opacity:0.81;fill:url(#SVGID_2_);enable-background:new    ;}
	.st27{fill:url(#SVGID_3_);}
	.st28{fill:url(#SVGID_4_);}
	.st29{fill:url(#SVGID_5_);}
	
		.st30{opacity:0.47;fill:none;stroke:#FBB86D;stroke-width:30;stroke-linecap:round;stroke-linejoin:round;enable-background:new    ;}
	
		.st31{opacity:0.47;fill:none;stroke:#FFB631;stroke-width:12;stroke-linecap:round;stroke-linejoin:round;enable-background:new    ;}
	.st32{fill:none;stroke:#000000;stroke-width:12;stroke-linecap:round;stroke-linejoin:round;}
	
		.st33{opacity:0.47;fill:none;stroke:#FBF66D;stroke-width:30;stroke-linecap:round;stroke-linejoin:round;enable-background:new    ;}
	
		.st34{opacity:0.68;fill:none;stroke:#FFFFFF;stroke-width:11;stroke-linecap:round;stroke-linejoin:round;enable-background:new    ;}
	.st35{fill:#FF3E33;}
	.st36{opacity:0.24;fill:#814C00;enable-background:new    ;}
	.st37{opacity:0.47;fill:#FF25E0;enable-background:new    ;}
	.st38{opacity:0.47;fill:#FBC15F;enable-background:new    ;}
	.st39{fill:#FF25E0;}
	.st40{opacity:0.47;fill:#0000FF;enable-background:new    ;}
	.st41{fill:#FBC15F;}
	.st42{opacity:0.47;}
	.st43{fill:#FF20FF;}
	.st44{fill:#FCBA54;}
	.st45{fill:#0000FF;}
</style>
<g>
	<title>margareth</title>
	<g id="Camada_2_1_">
		<path class="st0" d="M356.4,254.9c-21.8,1.6-43.9-11.5-53.6-31.7c-1.6-3.2-2.8-6.9-2-10.4s4.8-6.3,7.9-4.8c1.7,1,2.9,2.8,3.2,4.8
			c1.7,7.9-5.9,15.7-13.7,15.8c-7.8,0.2-14.9-5.5-19-12.4c-5.3-9.3-6.5-20.4-3.1-30.5"/>
		<path class="st0" d="M759.2,254.9c22.3,1.6,44.9-11.5,54.8-31.7c1.6-3.2,2.9-6.9,2-10.4s-4.9-6.3-8.1-4.8c-1.7,1-2.9,2.8-3.3,4.8
			c-1.7,7.9,6,15.7,14.1,15.8s15.3-5.5,19.4-12.4c5.5-9.2,6.6-20.4,3.2-30.5"/>
		<path class="st1" d="M695.5,374.8c0,0,74.9,43.7,74.1,122.7s-23.3,0-23.3,0s-1.8-51.8-46.8-89.2S695.5,374.8,695.5,374.8z"/>
		<path class="st2" d="M705.2,382.4c-8.2,4.2-11.3,8.3-15.9,16.3"/>
		<path class="st1" d="M420,374.8c0,0-78.8,43.8-77.9,122.7s24.5,0,24.5,0s1.9-51.8,49.3-89.2S420,374.8,420,374.8z"/>
		<path class="st2" d="M410,382.2c3.9,8.3,8.2,12.6,15.9,17.1"/>
		<path class="st3" d="M427.4,190.9c0,0-18.4-10.6-48.5,0s-30.2,74.3-30.2,74.3s-2.6,31.8,6.6,47.8s30.1,13.6,30.1,13.6l42,0.1
			L427.4,190.9z"/>
		<path class="st4" d="M421.2,367.9c0,0-31.4,160,32.3,258s212.7,0.7,212.7,0.7s55-95,30.2-258.7S421.2,367.9,421.2,367.9z"/>
		<g class="st5">
			<path class="st6" d="M393,327c-5.5,1.2-11.2,1.3-16.8,0.2c-4.1-0.8-8.1-2.2-11.8-4.3c-0.6-0.4-1.2-0.7-1.9-1.2s-1.4-0.9-1.9-1.4
				c-2.3-1.9-4.4-4.2-6-6.8c-1.4-2.3-2.6-4.8-3.5-7.3c-0.8-2.4-1.5-4.8-1.9-7.3c-0.2-1.2-0.4-2.4-0.5-3.5s-0.3-2.3-0.4-3.4
				c-0.9-8.9-1-17.9-0.4-26.8c0.6-8.8,1.6-17.4,2.7-26c0.2-1.6,1.7-2.6,3.2-2.4c1.4,0.2,2.4,1.4,2.4,2.7c0.1,8.6,0.2,17.2,0.8,25.7
				c0.5,8.3,1.8,16.6,3.8,24.7c0.2,1,0.5,2,0.8,3s0.5,2,0.8,2.9c0.6,1.7,1.3,3.4,2.1,5c0.7,1.4,1.6,2.8,2.6,4c0.8,1,1.9,1.8,3,2.5
				c0.2,0.2,0.5,0.2,0.7,0.4l1,0.4c0.7,0.2,1.4,0.5,2.1,0.6c1.5,0.4,3,0.6,4.6,0.6c3,0.1,6-0.4,8.9-1.5c5.1-2.1,11,0.4,13.1,5.5
				s-0.4,11-5.5,13.1c-0.5,0.2-1,0.4-1.5,0.5L393,327z"/>
		</g>
		<path class="st3" d="M691.1,191.8c0,0,18.3-10.6,48.4,0s30.1,74.3,30.1,74.3s2.6,31.8-6.5,47.8s-30,13.6-30,13.6l-41.9,0.1
			L691.1,191.8z"/>
		<g class="st5">
			<path class="st6" d="M730,306.4c3.6,1.3,7.3,2.2,11,2.9c1.3,0.2,2.7,0.3,4,0.2c0.4,0,0.7-0.1,1.1-0.1l0.3-0.1h0.1h0.1l0,0
				l0.1-0.1c2.6-2.2,4.7-4.8,6.3-7.9c0.9-1.6,1.6-3.3,2.1-5c0.6-1.7,1.1-3.8,1.6-5.8c2-8.2,3.3-16.6,3.8-25
				c0.7-8.5,0.9-17.2,1.1-25.9c0-1.6,1.3-2.8,2.9-2.8c1.4,0,2.6,1.1,2.8,2.5c1,8.7,2,17.4,2.5,26.3c0.6,9,0.5,18.1-0.4,27
				c-0.3,2.3-0.5,4.5-1,7c-0.5,2.5-1.1,5-2,7.4c-1.8,5.1-4.6,9.7-8.1,13.7l-0.2,0.2l-0.3,0.3l-0.5,0.5c-0.4,0.4-0.8,0.7-1.2,1
				c-0.8,0.6-1.6,1.2-2.5,1.6c-1.6,0.9-3.3,1.5-5,2c-2.9,0.8-6,1.1-9,1c-4.9-0.2-9.9-0.7-14.7-1.7l0,0c-5.5-1-9.1-6.2-8.1-11.6
				s6.2-9.1,11.6-8.1C729.1,306.1,729.5,306.2,730,306.4z"/>
		</g>
		
			<linearGradient id="SVGID_1_" gradientUnits="userSpaceOnUse" x1="513.207" y1="818.0983" x2="513.207" y2="1107.7966" gradientTransform="matrix(1 0 0 -1 45.86 1197.0699)">
			<stop  offset="0" style="stop-color:#FFC300"/>
			<stop  offset="1" style="stop-color:#FF5733"/>
		</linearGradient>
		<path class="st7" d="M420.1,367.9c2.5,0.5,119.8,26.2,276.3-2.5c28-5.1,36.6-34.4,37.9-57.9c1.8-30.9-1.4-65.4-22.9-106.9
			C689,157.4,641.3,88.4,559.1,89.3s-126.2,57.8-153,108.7c-15.5,29.4-25.7,90.6-21.9,125C386.8,346.2,389.2,361.2,420.1,367.9z"/>
		<ellipse class="st8" cx="277.2" cy="171.5" rx="16" ry="16.1"/>
		<ellipse class="st8" cx="840.4" cy="171.1" rx="16" ry="16.1"/>
		<path class="st9" d="M635.1,624.8c0,0,49.7-92.8,29.3-250.8c-0.7-5.6-8.2-0.6-12.5-0.3c-10,0.7-21.8,3.5-30.4,3.7
			c-23.9,0.5-47.4,1.4-74.2,2.1c-26.1,0.7-46.9-1.1-66-2.7c-21.9-1.8-32.1-2.9-32.1-2.9s-11,143.5,37.9,250.8
			S635.1,624.8,635.1,624.8z"/>
		<path class="st10" d="M393.6,352.6c0,0,3.7,11.5,27.6,15.3c26.8,4.3,114.3,28.5,283.3-5.7c2.3-0.3,4.5-1.3,6.2-2.9
			c1.9-1.5,1-0.5,3.9-3.5c5.2-5.5,6.2-7.1,5.2-5.5c2.4-3.5,4.5-7.1,6.5-10.9c4.7-10.5,4.2-15.7,4.2-15.7s-170.5,59.3-345.1,0
			C385.4,323.6,386,345.8,393.6,352.6z"/>
		<path class="st11" d="M623.9,623.5c0,0,41.2-89.7,23.8-247.7c-0.6-5.6-6.9-1.9-10.6-1.6c-8.5,0.7-16.9,0.4-24.2,0.6
			c-20.5,0.5-40,1.5-63,2.2c-22.4,0.7-41.4-1.1-57.7-2.7c-18.7-1.8-27.4-1.6-27.4-1.6s-9.4,143.5,32.4,250.8
			S623.9,623.5,623.9,623.5z"/>
		<line class="st12" x1="656.9" y1="718.9" x2="656" y2="718.9"/>
		<path class="st12" d="M474.6,369.4c0,0-22.9,133.5,22.6,256.1l0,0"/>
		<path class="st12" d="M1325.9,1222.9"/>
		<line class="st12" x1="396.7" y1="377.9" x2="764.9" y2="380.3"/>
		<path class="st13" d="M297.3,546.9l17.8,13.6c0,0-3.9-30.2,16.8-38.5c20.7-8.3-3-16.1-3-16.1S298.5,510.2,297.3,546.9z"/>
		<path class="st13" d="M359.5,575.8l-23.5-3c0,0,28.3-17.8,21.4-37.6c-6.9-19.8,15.6-8.8,15.6-8.8S389.9,550.1,359.5,575.8z"/>
		<ellipse class="st4" cx="347.4" cy="521.9" rx="28.5" ry="28.9"/>
		<path class="st13" d="M738.2,572.6l22.3,0.3c0,0-20.9-22-9.1-41.1c11.8-19.1-11.8-11.1-11.8-11.1S717.5,542.4,738.2,572.6z"/>
		<path class="st13" d="M805.1,558.6l-20.7,11.7c0,0,12.3-31.3-4.8-43.1s7.4-16.5,7.4-16.5S814.5,519.6,805.1,558.6z"/>
		<path class="st4" d="M786.7,505.3c9.4,12.8,6.7,30.8-6,40.4c-12.7,9.5-31.5,7.4-39.9-6.1c-6.7-10.7-3.2-28.1,6-40.4
			C756.3,486.5,777.3,492.5,786.7,505.3z"/>
		<ellipse class="st14" cx="347.4" cy="519" rx="18.5" ry="18.7"/>
		<ellipse class="st14" cx="763.7" cy="518.7" rx="18.5" ry="18.7"/>
		<ellipse cx="558.5" cy="235.9" rx="126.9" ry="62.1"/>
		<ellipse class="st15" cx="557.9" cy="237" rx="126.9" ry="62.1"/>
		<ellipse class="st10" cx="560.3" cy="497.5" rx="66.7" ry="67.4"/>
		<ellipse class="st16" cx="559.9" cy="497.5" rx="60.6" ry="61.3"/>
		<ellipse class="st17" cx="559.9" cy="497.5" rx="48.8" ry="49.3"/>
		<path class="st18" d="M496.3,480.2c3.1,1.5,6.6,2,10,1.7c0.9,0,1.8-0.3,2.5-0.9c1.3-1.3,0.6-3.8-0.9-4.8s-3.5-1.1-5.3-1.1
			c-1.6-0.1-3.3,0.1-4.7,0.8c-1.4,0.8-2.4,2.6-1.7,4.1c0.1,0.2,0.3,0.4,0.5,0.4s0.3-0.4,0.1-0.5"/>
		<path class="st18" d="M495.6,515.8c3.1,1.5,6.6,2,10,1.7c0.9,0,1.8-0.3,2.5-0.9c1.3-1.3,0.6-3.8-0.9-4.8c-1.5-1-3.5-1.1-5.3-1.1
			c-1.6-0.1-3.3,0.1-4.7,0.8c-1.4,0.8-2.4,2.6-1.7,4.1c0.1,0.2,0.3,0.4,0.5,0.4c0.2,0,0.3-0.4,0.1-0.5"/>
		<path class="st19" d="M792.1,525c0,12.8-13.2,26.3-28.4,26.3s-26.1-10.5-26.1-23.3c0-3.5,5,3.9,11,6.8c4.9,2.3,8.8,4.1,15,4.1
			c5.9,0,12.5-4,17.3-6.3C787.5,529.6,792.1,521.4,792.1,525z"/>
		<path class="st19" d="M374.5,531.2c-2.9,12.4-18.9,22.5-33.6,18.9s-24.4-18.6-21.4-31c0.8-3.4,5.4,7.2,10.6,11.4
			c4.3,3.4,7.6,6.1,13.7,7.5c5.7,1.4,13.1-1,18.3-2C368.9,534.5,375.3,527.6,374.5,531.2z"/>
		<path class="st10" d="M421.2,366.9l-4.1,24.2c0,0,124.2,30.9,280.3,0l2.6-0.4l-3.5-25.9C696.4,364.8,615.2,381.8,421.2,366.9z"/>
		<ellipse class="st14" cx="356.8" cy="511.2" rx="11.6" ry="11.8"/>
		<ellipse class="st14" cx="753.9" cy="508.3" rx="10.2" ry="10.3"/>
		<path class="st20" d="M414,408.8c0.8-1.8,1.3-3.8,1.5-5.8l3.8-27.5c-10.6,6-20.2,13.6-28.5,22.5c5.6,2.3,9.1,7.6,11.9,12.8
			c1.4,2.6,1.6,5,4.7,4.1C409.8,414.2,412.9,410.9,414,408.8z"/>
		<path class="st21" d="M319.7,528.9c0.3,0.8,0.4,1.7,0.3,2.6c-0.1,0.6-0.3,1.2-0.6,1.8c-3.9,8.4-5.2,17.8-3.8,27
			c-0.8,0.3-1.6-0.3-2.3-0.8l-6.3-5.3c-0.8-0.6-1.4-1.3-1.9-2.1c-0.3-0.7-0.5-1.5-0.4-2.3c-0.3-6.2,1.6-12.4,4.1-18.1
			c1.5-3.5,3.4-7.2,6.3-9.7c0.7-0.7,1.4-1.2,2.3-1.6c1.2-0.3,0.9-0.1,1.1,1.1C319,523.9,319.1,526.4,319.7,528.9z"/>
		<path class="st21" d="M341.2,568.6c-1.9,1.2-3.6,2.6-5.2,4.2c3.7,1,7.6,1.5,11.5,1.5c0.8,0.1,1.6-0.1,2.3-0.4c0.7-0.4,1.4-1,2-1.7
			c2.1-2.2,4.8-3.8,6.9-6.1c3.8-3.9,5.6-9.4,7-14.7c0.6-2.3,1.2-4.8,0.2-7c0.3,0.7-7.3,3.9-8.1,4.4c-1.8,1.4-2.7,4.2-3.9,6
			C350.6,560.2,346.2,564.9,341.2,568.6z"/>
		<ellipse class="st22" cx="586.5" cy="476.2" rx="10" ry="10.1"/>
		<ellipse class="st23" cx="576.5" cy="484.9" rx="18.6" ry="18.8"/>
		<path class="st24" d="M297.3,547l5.6,3.8c-0.9-2.8-1.1-5.8-0.5-8.7c0.8-4.9,2.6-9.6,5.4-13.7c1-1.5,2.1-2.9,3.2-4.2
			c1-1.4,2.2-2.7,3.5-3.8c1.3-1.1,2.9-1.8,4.6-1.9c0.6-3.5,1.6-7,3-10.3c-4.2,2.1-8.6,4-12,7.3c-2,2-3.6,4.2-5.4,6.4
			c-1.1,1.3-1.7,3.3-2.5,4.7c-1,1.7-1.8,3.6-2.4,5.5c-1.5,4.3-2.8,8.7-2.6,13.2c0,0.5,0.1,1,0.4,1.5c0.2,0.3,0.5,0.6,0.9,0.7
			l3.5,2.2l-0.5-1"/>
		<path class="st24" d="M360,575.3c4-2.9,7.5-6.4,10.3-10.5c-0.3,0.3-0.6,0.6-1,0.8c2-0.9,2.7-3.4,3.6-5.4s2.1-3.7,2.9-5.7
			c0.7-1.8,1.2-3.8,1.5-5.7c0.5-1.9,0.6-3.9,0.5-5.9c-0.1-1-0.4-2-0.6-3c-0.6-3.3-0.2-7-2.4-9.4c-1.1,2.7-2.3,5.3-3.9,7.8
			c-0.4,0.5-0.7,1.1-0.9,1.8c-0.1,0.4-0.1,0.8-0.1,1.3c0,5-0.6,10-1.9,14.9c-0.4,1.6-0.9,3.1-1.7,4.5c-0.8,1.2-1.6,2.4-2.6,3.4
			c-1.4,1.6-2.9,3.3-4.4,4.8c-1.2,1.2-5.2,3.5-4.9,5.4C354.7,576.4,358.7,576.2,360,575.3z"/>
		<path class="st25" d="M792.9,565.3c0.4-0.2,0.7-0.5,1-0.8c0.4-0.5,0.6-1,0.8-1.6c0.9-2.5,1.5-5.1,1.7-7.7c0.1-2.6-0.6-5.2-0.8-7.8
			c-0.1-2.1,0-4.3,0-6.5c-0.2-4.3-1.4-8.4-3.5-12.1l-3.9,8.6c-0.2,0.3-0.3,0.7-0.4,1c-0.1,0.6,0,1.2,0.2,1.8
			c0.4,2.1,0.6,4.2,0.6,6.3c0,8-1.8,15.2-3.5,22.8C787.4,568,790.3,566.8,792.9,565.3z"/>
		<path class="st24" d="M801.3,560.1c2.1-0.3,3.9-1.7,4.6-3.6c0.3-1,0.5-2,0.6-3.1c0.5-4.4,0.6-8.8,0.4-13.2
			c-0.9-10.2-6.7-22.3-16-27.3c0.1,2.9,0.8,5.8,2,8.4c1.3,2.4,3,4.6,4.2,7c3,6.3,4.7,13.3,4.9,20.3
			C802,549.6,802.2,559.9,801.3,560.1z"/>
		<path class="st25" d="M747.5,546.8c1.5,9.7,5.9,18.7,12.7,25.8l-10.9-0.5c-0.7,0.1-1.4-0.4-1.5-1.2c-3.1-8.6-4.3-8.5-6.3-17.4
			c-0.2-0.7-1.8-12-1.2-12.7c0.8-0.8,1.5,0.7,2,1.3c0.8,1,1.6,1.8,2.5,2.7C745.2,545.1,747.5,546.4,747.5,546.8z"/>
		<path class="st24" d="M735,548.7c1,6.6,2.5,11,3.5,17.7c0.3,2.1,0.7,4.3,2,6c-1.4,0.7-3-0.7-3.9-2c-3.5-5.5-5.8-11.6-6.7-18
			c-0.7-4.9-0.5-9.9,0.4-14.8c0.8-4.6,3.2-10.5,7.5-12.7c0.7,3.2-0.7,5.7-1.7,8.5C734.6,537.6,734.4,544.2,735,548.7z"/>
		
			<linearGradient id="SVGID_2_" gradientUnits="userSpaceOnUse" x1="522.4102" y1="557.4914" x2="522.4102" y2="135.2377" gradientTransform="matrix(1 0 0 -1 45.86 1197.0699)">
			<stop  offset="3.000000e-02" style="stop-color:#29ABE2"/>
			<stop  offset="0.47" style="stop-color:#0000FF"/>
			<stop  offset="1" style="stop-color:#291354"/>
		</linearGradient>
		<path class="st26" d="M513.6,782.9c3.1,16.6,0.1,34,4,50.4c5.3,22.2,22.1,39.3,35.4,57.7c17.5,24.4,29.5,52.3,35.1,81.8
			c1.8,9.7,3,19.7,7.1,28.7c3.3,7.3,8.3,13.5,13.3,19.7l32.7,40.6c15-31.6,6.3-69.7,16-103.4c4.3-14.9,7.2-45.3,12.2-60
			c14.7-42.6-6.5-56.9-17.4-102.6c-6.6-27.7,3.5-70.6,0-96.4c-1.7-13,3.6-21.4-3.5-32.3c-8.5-13.1-17.9-21.3-33.3-22.8
			c-32.8-3.3-126.6-15-148.1,18.8C444.6,698.4,507,748.2,513.6,782.9z"/>
		
			<linearGradient id="SVGID_3_" gradientUnits="userSpaceOnUse" x1="521.0906" y1="519.9067" x2="521.0906" y2="192.8477" gradientTransform="matrix(1 0 0 -1 45.86 1197.0699)">
			<stop  offset="0" style="stop-color:#FBC15F"/>
			<stop  offset="0.99" style="stop-color:#FF25E0"/>
		</linearGradient>
		<path class="st27" d="M538.5,783.4c-0.3,9.2-3,18.3-1.7,27.4c2.8,19.5,21.9,31.4,34.8,46.1c35.1,39.8,26.1,104.6,57.7,147.4
			l4.7-70c1.8-26.2,3.5-53-3.5-78.2c-3.8-13.7-10.1-26.8-10.7-41c-0.5-11.8,3.1-23.2,4.8-34.9c3.7-25.2-1.2-50.8-6.2-75.8
			c-0.9-4.8-2-9.9-5.5-13.2s-8.2-4.2-12.8-4.9c-25.2-4.2-88.8-23.2-100.1,11.4C489,731.2,539.6,748.1,538.5,783.4z"/>
		
			<linearGradient id="SVGID_4_" gradientUnits="userSpaceOnUse" x1="528.0718" y1="274.7478" x2="528.0718" y2="511.8966" gradientTransform="matrix(1 0 0 -1 45.86 1197.0699)">
			<stop  offset="0" style="stop-color:#FB8E71"/>
			<stop  offset="0.99" style="stop-color:#FF53E0"/>
		</linearGradient>
		<path class="st28" d="M549.7,732.1c9.9,12.6,10.8,30.4,7.8,46.2c-2.3,11.8-6,25.5,1.8,34.6c4.1,4.8,10.3,6.8,15.6,10.2
			c13.7,8.6,20,25.2,25.5,40.5c6.9,19.6,13.8,39.1,20.8,58.7c3.1-27.8-0.4-55.9-10.3-82.1c-3.2-8.4-7-16.7-8.2-25.6
			c-2-15.4,4.1-30.6,7-45.9c3.1-16.7,2.1-33.9-2.8-50.2c-2.8-9.2-7-18.4-14.4-24.5c-13.7-11.4-42.7-11.3-58-2.7
			C511.3,704.3,540.4,720.3,549.7,732.1z"/>
		
			<linearGradient id="SVGID_5_" gradientUnits="userSpaceOnUse" x1="513.9916" y1="374.2978" x2="513.9916" y2="361.1377" gradientTransform="matrix(1 0 0 -1 0 1156)">
			<stop  offset="0" style="stop-color:#FBC15F"/>
			<stop  offset="0.99" style="stop-color:#FF25E0"/>
		</linearGradient>
		<ellipse class="st29" cx="514" cy="788.3" rx="6.5" ry="6.6"/>
	</g>
	<g id="Camada_3">
		<path class="st2" d="M396.8,392.5c3.9,8.3,8.2,12.6,15.9,17.1"/>
		<path class="st2" d="M343.5,483.2c8.1,5.2,13.4,5.9,23,5.7"/>
		<path class="st2" d="M353,448.6c7.3,6.3,13.2,8.8,22.7,10.1"/>
		<path class="st2" d="M347,465.8c8,5.6,13.7,7.3,23.5,7.7"/>
		<path class="st2" d="M383.5,404.8c5.4,7.3,10.3,10.9,18.8,14.4"/>
		<path class="st30" d="M411.1,229.1c27-54.4,54.9-100.5,112.8-115.1"/>
		<path class="st31" d="M390.7,201.6c0,0-26.3-0.2-28.9,34.3"/>
		<path class="st32" d="M722.5,201.6"/>
		<path class="st32" d="M722.5,200.4"/>
		<path class="st32" d="M755.6,235.9"/>
		<path class="st32" d="M390.3,349.3"/>
		<path class="st33" d="M432.2,473.7c-0.3,22.4,8.4,75.6,19.9,105.6"/>
		<path class="st31" d="M755.5,230.3c0,0,2.4-26.4-25-31.4"/>
		<ellipse class="st23" cx="277.2" cy="166.5" rx="9.1" ry="9.2"/>
		<ellipse class="st23" cx="840.4" cy="166.8" rx="9.1" ry="9.2"/>
		<path class="st34" d="M598.3,237c6.3-12.8,21.9-18.1,34.7-11.8c4.7,2.3,8.5,5.9,11.1,10.5"/>
		<path class="st34" d="M465.6,236.3c6.3-12.8,21.9-18.1,34.7-11.8c4.7,2.3,8.5,5.9,11.1,10.5"/>
		<path class="st2" d="M372.3,417.6c6,7.5,11.3,10.7,20.1,13"/>
		<path class="st2" d="M362.3,431.8c6.7,6.7,12.4,9.5,21.5,11.3"/>
		<path class="st2" d="M768.1,484c-8.8-0.6-14.4,1-22,5.4"/>
		<path class="st2" d="M717,391.8c-8.2,4.2-11.3,8.3-15.9,16.3"/>
		<path class="st2" d="M740.9,417.5c-8,3.3-12.7,7.1-18.3,14.3"/>
		<path class="st2" d="M729.3,404c-8,3.8-12,7.5-16.8,15.1"/>
		<path class="st2" d="M764.8,465.8c-8.9,1-14.6,3.5-21.8,9.1"/>
		<path class="st2" d="M759.5,449.5c-9.4,1.4-14.8,4.4-21.3,10.9"/>
		<path class="st2" d="M751.9,434c-8.8,2.5-13.9,6-20,13"/>
		<path class="st35" d="M455,626.1c-1-0.2-2.1,0.4-2.3,1.4c0,0.2-0.1,0.4,0,0.6c0.4,10.8,2.7,53.2,12.9,65.5
			c6.7,8,49.4,14.4,94.3,14.6c33.8,0.1,51.6-72.2,0-71.7C528.1,636.8,491.8,634.3,455,626.1z"/>
		<path class="st35" d="M664.4,626.1c1-0.2,2.1,0.4,2.3,1.4c0,0.2,0.1,0.4,0,0.6c-0.4,10.8-2.7,53.2-12.9,65.5
			c-6.7,8-49.5,14.4-94.6,14.6c-33.9,0.1-51.7-72.2,0-71.7C591.2,636.8,627.6,634.3,664.4,626.1z"/>
		<path class="st36" d="M452.1,625l214.7-1.7c0,0,0.9,6.6-1,21.4S449.1,659.5,455,645s-0.4-1.5-0.4-1.5L452.1,625z"/>
		<ellipse class="st23" cx="843.4" cy="160.9" rx="4.2" ry="4.2"/>
		<ellipse class="st23" cx="280.2" cy="160.9" rx="4.5" ry="4.6"/>
		<path class="st20" d="M364.9,498.9c1-5.8,2-11.6,3.1-17.4c-3.7,0.5-7.5,0.7-11.2,0.6c-2.9-0.1-13-6.9-13.9-4.1
			c-1.4,4.3-0.5,10.6-0.5,14.8c4,0.4,8,0.4,11.9,1.5C355.5,494.6,365.1,497.7,364.9,498.9z"/>
		<path class="st20" d="M746.6,498.9c1-2.5,3.9-3.6,6.5-4.2c5.2-1.1,10.6-1.4,15.8-0.8c0.5-5.5,0.1-11-1.1-16.4
			c-0.4,2.2-3,3.1-5.2,3.5l-8.3,1.7c-2.1,0.4-6.8,0.5-8.5,1.8C743,486.7,746.6,495.6,746.6,498.9z"/>
		<path class="st20" d="M699.4,392c0.8,5.7,1.6,11.5,1.2,17.3c1.1,0.2,2.1,0.6,3,1.3l-2.1-0.9c2.5,1.8,4.6,4.1,6.3,6.6
			c1.5-8.8,9.8-15.8,18.7-15.9c-2.8-3.4-7.5-7.5-11.9-10.9c-2.8-2.2-5.2-4.7-8-6.9c-1.8-1.4-6.9-7.2-8.8-3.9
			C696.5,380.9,699,389.4,699.4,392z"/>
	</g>
	<g id="Camada_4">
		<ellipse class="st37" cx="588.4" cy="800.5" rx="4.2" ry="4.2"/>
		<ellipse class="st37" cx="618.1" cy="731.2" rx="2.5" ry="2.6"/>
		<ellipse class="st38" cx="580.1" cy="738.9" rx="1.7" ry="1.7"/>
		<ellipse class="st39" cx="638.1" cy="781.7" rx="2.6" ry="2.6"/>
		<ellipse class="st40" cx="513.5" cy="715.6" rx="4" ry="4"/>
		<ellipse class="st37" cx="467.8" cy="709.6" rx="4" ry="4"/>
		<ellipse class="st38" cx="484.6" cy="733.8" rx="2.6" ry="2.6"/>
		<ellipse class="st37" cx="511.5" cy="749.2" rx="2" ry="2"/>
		<ellipse class="st39" cx="647" cy="709.8" rx="1.7" ry="1.7"/>
		<ellipse class="st38" cx="645.1" cy="745.6" rx="1.6" ry="1.6"/>
		<ellipse class="st37" cx="644.4" cy="724.9" rx="0.9" ry="0.9"/>
		<ellipse class="st40" cx="497.3" cy="769.9" rx="4.8" ry="4.9"/>
		<ellipse class="st39" cx="603.9" cy="773.7" rx="3.8" ry="3.8"/>
		<ellipse class="st40" cx="551.2" cy="749.8" rx="4.4" ry="4.4"/>
		<ellipse class="st38" cx="525.7" cy="765.5" rx="4.6" ry="4.7"/>
		<ellipse class="st38" cx="557" cy="720.1" rx="4.4" ry="4.4"/>
		<ellipse class="st40" cx="657.1" cy="719" rx="3.3" ry="3.4"/>
		<ellipse class="st41" cx="684.1" cy="727.4" rx="4.6" ry="4.7"/>
		<ellipse class="st37" cx="580.1" cy="722.2" rx="4.2" ry="4.2"/>
		<ellipse class="st37" cx="647.8" cy="707.3" rx="2.5" ry="2.6"/>
		<ellipse class="st38" cx="596.8" cy="754.2" rx="1.7" ry="1.7"/>
		<ellipse class="st39" cx="667.8" cy="757.8" rx="2.6" ry="2.6"/>
		<ellipse class="st40" cx="561" cy="814.4" rx="4" ry="4"/>
		<ellipse class="st37" cx="547.2" cy="784.3" rx="4" ry="4"/>
		<ellipse class="st38" cx="514.4" cy="709.9" rx="2.6" ry="2.6"/>
		<ellipse class="st37" cx="541.2" cy="725.3" rx="2" ry="2"/>
		<ellipse class="st39" cx="487.2" cy="715.6" rx="1.7" ry="1.7"/>
		<ellipse class="st38" cx="629.8" cy="720.1" rx="1.6" ry="1.6"/>
		<ellipse class="st37" cx="674.1" cy="701.1" rx="0.9" ry="0.9"/>
		<ellipse class="st40" cx="598.5" cy="850.7" rx="4.8" ry="4.9"/>
		<ellipse class="st39" cx="633.6" cy="749.8" rx="3.8" ry="3.8"/>
		<ellipse class="st40" cx="606.2" cy="741.6" rx="4.4" ry="4.4"/>
		<ellipse class="st38" cx="534.9" cy="814.4" rx="4.6" ry="4.7"/>
		<ellipse class="st38" cx="647.8" cy="809.7" rx="4.4" ry="4.4"/>
		<ellipse class="st40" cx="615.6" cy="822.4" rx="3.3" ry="3.4"/>
		<ellipse class="st41" cx="463.9" cy="737.2" rx="4.6" ry="4.7"/>
		<g class="st42">
			
				<rect x="442.5" y="701.4" transform="matrix(0.947 -0.3211 0.3211 0.947 -228.5892 218.0737)" class="st12" width="208.7" height="201.3"/>
			<path class="st43" d="M574,893c-0.6,0.2-0.9,0.8-0.7,1.4l0,0l0.2,0.4l1,0.3l0.2-0.1c0.4-0.2,1.3-0.7,1-1.6l0,0
				c-0.1-0.4-0.5-0.7-0.9-0.7h-0.3L574,893L574,893z"/>
			<path class="st43" d="M439.9,810.8v0.5v0.2l0.1,0.2c0.1,0.6,0.7,0.9,1.3,0.8h0.2l0,0c0.1,0,0.3,0,0.5,0l0.3-0.1l0.5-0.9l-0.4-1.1
				l-0.8-0.5h-0.2c-0.5,0.1-0.9,0.3-1.2,0.7L439.9,810.8z"/>
			<path class="st43" d="M452.5,808.7l0,1.1v0.1c0,0.1,0,0.1,0,0.2c0,0.1,0,0.2,0.1,0.4l0,0.2l0.6,0.5h0.2c0.4,0.1,0.8-0.1,1-0.5
				l0.1-0.1l0.3-0.7l0-0.2c0-0.1,0-0.2-0.1-0.3c-0.1-0.4-0.4-0.8-0.8-0.9c-0.4-0.1-0.7-0.1-1.1,0.1L452.5,808.7z"/>
			<path class="st43" d="M470.8,779.8c0-0.1-0.1-0.2-0.1-0.3l-0.1-0.2l-0.8-0.4h-0.2c-0.7,0.1-1.1,0.8-1,1.4c0,0.1,0,0.1,0,0.2
				c0,0,0,0,0,0.1v0.2l0.8,0.8l0.3-0.1c0.4-0.1,0.7-0.3,0.9-0.6C471,780.6,471,780.2,470.8,779.8z"/>
			<path class="st43" d="M490.3,772.4l-1,0.3l-0.3,0.7l-0.1,0.3v0.1l-0.1,0.1l0,0l-0.1,0.2l0,0c-0.2,0.4-0.2,0.9,0,1.4l0.2,0.6
				l0.9,0.4l0,0l0.1,0.1l0.6,0.3h0.2c0.5-0.1,0.9-0.3,1.2-0.7l0,0h0.3l0.6-0.8c0,0,0-0.3,0-0.3v-0.2c0-0.2,0-0.3-0.1-0.5
				c-0.1-0.4-0.5-0.7-0.9-0.8v-0.1l-1-0.9h-0.1L490.3,772.4z"/>
			<path class="st43" d="M461.8,783.6L461.8,783.6v-0.4c0-0.1,0-0.2-0.1-0.3c-0.1-0.2-0.2-0.4-0.3-0.5c0-0.1,0-0.2-0.1-0.3
				c-0.2-0.5-0.6-0.8-1.1-0.7h-0.2l-0.4,0.5l0.4,0.3l-0.5-0.1l-0.2,0.4v0.1c-0.3,0.3-0.5,0.8-0.3,1.2c0,0.1,0.1,0.2,0.1,0.3v0.1
				l0.2,0.2h0.1c0.3,0.2,0.6,0.2,0.9,0.1c0.1,0,0.2-0.1,0.3-0.2c0.1,0,0.3,0,0.4-0.1C461.4,784.2,461.7,784,461.8,783.6z"/>
			<path class="st43" d="M510.6,789.9L510.6,789.9l-0.7,0.7v0.5c0,0.5,0.1,1,0.2,1.5c0.1,0.2,0.1,0.4,0.2,0.5l0.1,0.3h0.5
				c0.2,0.3,0.4,0.4,0.8,0.5c0.6,0.1,1.3-0.1,1.6-0.7c0.5-0.3,0.8-0.9,0.9-1.5l0.1-0.3l-0.4-0.6l0,0c0-0.2-0.1-0.4-0.1-0.6
				c0-0.1-0.1-0.2-0.1-0.3v-0.1l-0.2-0.2l0,0c-0.2-0.2-0.5-0.3-0.8-0.3c-0.3-0.1-0.7-0.2-1-0.2h-0.2h-0.2l-0.7,0.3L510.6,789.9z"/>
			<path class="st43" d="M566.4,799.2l0.3-0.1l0.5-0.9L567,798c0,0,0-0.1,0-0.1l0.1-0.4l-1-1l-1.1,0.4l-0.4,0.8l0.1,0.2
				c0,0.1,0,0.2,0.1,0.3c0.1,0.7,0.8,1.2,1.5,1C566.3,799.3,566.3,799.2,566.4,799.2z"/>
			<path class="st43" d="M587.1,790.2l0.8,0.5l0.2-0.1c0.6-0.1,1.1-0.6,1.3-1.2l0.1-0.3l-0.7-0.6l-0.3-0.2l-0.3,0.1
				c-1.3,0.4-1.3,1.2-1.2,1.6L587.1,790.2z"/>
			<path class="st43" d="M566.1,788.7l-0.3-0.4l-0.1-0.1c-0.5-0.3-1.1-0.2-1.6,0.2c-0.4,0.3-0.5,0.8-0.4,1.3l0.1,0.3l1,0.4l0.2-0.1
				h0.1c0.4,0,0.8-0.2,1-0.6c0.2-0.3,0.2-0.6,0.1-0.9L566.1,788.7z"/>
			<path class="st43" d="M486.7,817.6c0.7-0.1,1.2-0.8,1.1-1.5c0,0,0-0.1,0-0.1v-0.2l-0.1-0.1c0-0.1,0-0.3,0-0.4v-0.3l0,0
				c0-0.1,0-0.1,0-0.2v-0.1l-0.3-0.5l-0.1-0.1l-0.3-0.2c-0.2-0.1-0.3-0.2-0.5-0.3l-0.1-0.1l-0.5-0.3h-0.1l-0.3-0.1
				c-0.4-0.3-0.9-0.2-1.2,0.1l0,0l0,0c-0.6,0.2-1,0.7-1.1,1.3l0,0.3l0.1,0.1c0,0.2-0.1,0.4,0,0.6v0.1l-0.1,0.1l0.1,0.8v0.3l0.2,0.2
				c0.1,0.1,0.2,0.3,0.2,0.4l0,0l0,0l0.1,0.2l0.3,0.4l0.2-0.1c0.1,0.1,0.2,0.2,0.3,0.2c0.2,0.1,0.4,0.1,0.7,0.1
				c0.3,0.1,0.6,0.2,0.9,0.1h0.2L486.7,817.6L486.7,817.6z"/>
			<path class="st43" d="M525.2,803H525l-0.5,0.6v0.1c-0.2,0.1-0.3,0.2-0.4,0.4l-0.1,0.1l0,0.5v0.1c0.1,0.4,0.5,0.6,0.9,0.7
				c0.8,0.2,1.6-0.2,1.9-1c0,0,0,0,0,0l0.2-0.4l-0.4-0.3c0,0,0-0.1,0-0.1C526.4,803.1,525.8,802.8,525.2,803z"/>
			<path class="st43" d="M508.6,811.1l-0.6-0.5h-0.2h-0.1c-0.2,0-0.3-0.1-0.5-0.1h-0.2l-0.7,0.7l0.1,0.5l0,0c0.3,0.6,0.9,1,1.6,0.8
				c0.6-0.1,0.9-0.7,0.8-1.3L508.6,811.1z"/>
			<path class="st43" d="M471.9,760l0.2-0.1l0.4-0.5v-0.2c0.1-0.2,0.1-0.4,0-0.7c-0.2-0.6-0.9-0.9-1.5-0.7c0,0,0,0,0,0l-0.3,0.1
				l-0.2,0c-0.3,0-0.6,0.1-0.9,0.3c-0.2,0.3-0.4,0.6-0.3,1v0.3l0.4,0.3v0.1l0.1,0.2l0.6,0.5h0.2c0.4,0,0.8-0.2,1-0.5
				C471.8,760.2,471.8,760.1,471.9,760z"/>
			<path class="st43" d="M616,882.6l-0.1,0.3l1,0.9l0.7-0.3l0.2-0.2l0.1,0.1c0.2,0.3,0.6,0.5,1,0.4h0.3l0.5-0.7l0,0
				c0.1-0.2,0.2-0.5,0.2-0.7v-0.2l-0.4-0.5l-0.2-0.1c-0.3-0.2-0.7-0.2-1.1,0c-0.1,0.1-0.2,0.1-0.3,0.2c-0.3-0.3-0.6-0.4-1-0.4h-0.3
				L616,882.6L616,882.6z"/>
			<path class="st43" d="M517.3,861.2l0.1-0.1l0.1-0.6l-0.2-0.7l-0.4-0.1c-0.1-0.2-0.4-0.3-0.6-0.4c-0.2-0.2-0.5-0.3-0.8-0.3H515
				l-0.3,0.6l0,0l0.1-0.1l-0.1,0.1c-0.9,0.5-0.9,1-0.8,1.4c0.1,0.3,0.4,0.6,0.8,0.7l0.3,0.1h0l0.2,0.1h0.1l0.4,0.2l0.9-0.3l0,0
				C516.9,861.7,517.1,861.4,517.3,861.2z"/>
			<path class="st43" d="M487.3,886.1l-0.1,0.2c-0.4,0.1-0.8,0.4-0.9,0.8l-0.1,0.2l0.2,0.3l0,0l0.4,0.5l0,0l0.1,0.1l0,0
				c0,0.1,0.1,0.1,0.1,0.2l0.1,0l-0.1,0.2c0.2,0.2,0.5,0.4,0.8,0.4l0,0l0,0l0,0c0.2,0.3,0.6,0.5,1,0.5h0.2l0.1-0.1
				c0.2,0.1,0.4,0.1,0.6,0l0.1,0.1h0.5l1-0.3l0.4-0.9l-0.1-0.3c0-0.1,0-0.1,0-0.2c0-0.2,0-0.3-0.1-0.5c-0.1-0.3-0.2-0.5-0.4-0.7
				l-0.1-0.1l-0.6-0.2h-0.1c-0.2,0-0.3,0.1-0.5,0.1c-0.2-0.3-0.4-0.5-0.8-0.5c-0.4,0-0.8,0.1-1,0.5l-0.3-0.1L487.3,886.1z"/>
			<path class="st43" d="M485.5,862.1l-0.1-0.2l0.2,0.2l0.4-0.5v-0.2c0-0.2,0-0.3-0.1-0.5c-0.1-0.2-0.2-0.4-0.4-0.5c0,0,0-0.1,0-0.1
				l-0.1-0.2l0,0c0-0.1-0.1-0.1-0.1-0.2c-0.1-0.2-0.3-0.3-0.5-0.4l-0.2-0.1h-0.1l-0.7-0.5h-0.1h-0.1c-0.4-0.2-0.8-0.1-1.2,0.1
				c-0.3,0.2-0.4,0.6-0.4,0.9v0.3l0,0l-0.1,0.1v0.3v0.2c-0.2,0.3-0.2,0.6-0.1,0.9c0.1,0.3,0.3,0.5,0.6,0.6l0.1,0.4l0.7-0.3l0,0
				c0.3,0.1,0.6,0,0.8-0.1l0,0l0.4,0.2L485.5,862.1z"/>
			<path class="st43" d="M593.4,865.1c0.4-0.1,0.7-0.3,1-0.6l0.2-0.3l-0.3-0.8l-0.1-0.3H594c-0.2-0.3-0.5-0.4-0.8-0.5h-0.1l-0.1-0.2
				l-0.5,0.3l-0.2-0.1l-1.1,0.9v0.1c-0.3,0.3-0.5,0.8-0.3,1.3v0.2l0.6,0.5h0.3l0.2,0.1l0.7-0.1h0.2l0.1-0.2
				C593.1,865.2,593.3,865.2,593.4,865.1z"/>
			<path class="st43" d="M524.4,884h-0.3l-0.4,1l-0.1,0.4l0.2,0.1c-0.1,0.4-0.1,0.8,0,1.1c0.1,0.1,0.1,0.3,0.2,0.4v0.1l0.3,0.2
				l0.1,0c0.2,0.5,0.7,0.8,1.2,0.6l0.3,0.1l0.3-0.2c0.4-0.2,0.7-0.5,1-0.8l0.3-0.2l0.4-0.1l0-1h-0.2h0.3v-0.1c0-0.1,0-0.2,0-0.3
				c0.1,0.3,0.3,0.5,0.5,0.7v0.1l0.8,0.4h0.2c0.7-0.1,1.3-0.7,1.2-1.4c0-0.1,0-0.1,0-0.1l-0.1-0.3l-0.3-0.1v-0.1v-0.1l-0.4-0.4h-0.1
				c-0.3-0.1-0.6-0.1-0.9,0.1l0,0c-0.3,0-0.5,0.1-0.7,0.3l-0.1,0.1l-0.2,0.6v0.2l0,0c0-0.1-0.1-0.2-0.1-0.3
				c-0.1-0.2-0.3-0.4-0.5-0.5c-0.1-0.3-0.3-0.5-0.5-0.7h0l-0.3-0.1H526c-0.6-0.1-1.1,0.1-1.6,0.4L524.4,884z"/>
			<path class="st43" d="M620.3,848.6l-0.1,0.2l0.2,0.7l0.6,0.3l0,0c0.2,0.1,0.4,0.1,0.6,0.1h0.3l0.5-0.7v-0.1l0.3-0.6l-0.1-0.3
				c-0.2-0.5-0.6-0.8-1.1-0.9l-0.3-0.3L620,848L620.3,848.6z"/>
			<path class="st43" d="M530.5,723.3l-0.3,0.8l0.1,0.3c0.1,0.4,0.3,0.8,0.6,1.1c0.1,0.1,0.1,0.1,0.1,0.2l0.1,0.3l0.9,0.4l0.3-0.1
				c1-0.4,1.6-1.4,1.6-2.4v-0.4l-0.6-0.3l-0.2-0.2H533c-0.3-0.1-0.6-0.1-0.9,0l0,0H532c-0.4-0.1-0.9,0-1.3,0.3L530.5,723.3z"/>
			<path class="st43" d="M570.6,723.6c-0.3,0-0.5,0.1-0.8,0.3l-0.1,0.1l-0.3,0.5l0.1,0.4v0c0.3,0.6,0.9,1,1.6,0.8h0.1l0.3,0.1h0.2
				c0.3-0.1,0.5-0.2,0.7-0.3c0.2,0.1,0.5,0.2,0.8,0.1h0.3l0.5-0.8l-0.1-0.4c-0.3-0.7-1-1.1-1.8-0.9h-0.1c-0.3-0.2-0.7-0.3-1.1-0.1
				C570.8,723.5,570.7,723.5,570.6,723.6z"/>
			<path class="st43" d="M492.4,738.6c-0.1-0.1-0.2-0.3-0.2-0.4c-0.1-0.2-0.2-0.4-0.4-0.6l-0.2-0.3l-0.8-0.3h-0.2
				c-0.3,0.1-0.6,0.3-0.8,0.6c-0.1,0.3-0.1,0.6,0,0.8c0,0.1,0.1,0.2,0.1,0.3v0.1c-0.2,0.4-0.3,0.8-0.2,1.2l0.1,0.2l0.4,0.2l0.2,0.5
				l0.8,0.5h0.2c0.6-0.1,1.1-0.5,1.4-1l0.1-0.1l0.3-0.3l-0.4-1.3L492.4,738.6z"/>
			<path class="st43" d="M562.6,728.2v-0.4l-1.1-0.5l-0.2,0.1c-0.6,0.1-1,0.7-0.9,1.4c0,0,0,0.1,0,0.1c0,0.1,0.1,0.2,0.1,0.3
				l0.1,0.2h0.1v0.1c0,0.1,0.1,0.2,0.1,0.3l0.1,0.2l0.8,0.3l0.7-0.2l0.4-0.9L562.6,728.2L562.6,728.2z"/>
			<path class="st43" d="M484.1,777.4c0.3-0.1,0.5-0.3,0.6-0.6l0.4-0.2l0.1-0.2c0.2-0.6,0.2-1.2,0-1.7c0-0.1-0.1-0.2-0.1-0.3v-0.4
				l-0.6-0.3c-0.1-0.3-0.2-0.5-0.4-0.7c-0.1-0.1-0.3-0.2-0.4-0.2c-0.1-0.1-0.2-0.2-0.4-0.2h-0.1h-0.3h0c-0.4,0.1-0.8,0.3-1.2,0.5
				l-0.3,0.2l-0.2,0.1l-0.3,0.9l0.1,0.2c0,0.1,0,0.2,0,0.3c0,0.3,0,0.6,0.1,0.8c0,0.1,0.1,0.2,0.1,0.2c0.1,0.1,0.1,0.2,0.2,0.3v0.4
				l0.2,0.2c0.3,0.3,0.7,0.4,1.1,0.4l0.3,0.2h0.2c0.1,0,0.2,0,0.4,0C483.5,777.5,483.8,777.5,484.1,777.4z"/>
			<path class="st43" d="M578.5,727.3c0,0,0,0.1,0,0.2c0,0.2-0.1,0.3-0.1,0.5v0.3l0.9,0.7l0.3-0.1c0.4-0.1,0.7-0.3,0.8-0.7
				c0.2-0.3,0.2-0.7,0.1-1c-0.1-0.4-0.4-0.7-0.8-0.8l-0.3-0.1l-1,0.7L578.5,727.3z"/>
			<path class="st43" d="M576.9,685.8l-0.1,0.2c-0.1,0.3-0.1,0.6,0,0.9c0,0.1,0.1,0.2,0.1,0.2c-0.1,0.3-0.1,0.7,0,1l0.2,0.4l0.6,0.2
				h0.1c0.3,0.3,0.7,0.4,1.2,0.3c0.2,0,0.4-0.1,0.5-0.3c0.5-0.2,0.8-0.8,0.7-1.4l-0.1-0.3l-0.2-0.1v-0.1v-0.1l0,0
				c0.2-0.2,0.2-0.6,0.1-0.9c-0.2-0.4-0.6-0.7-1-0.7l0,0h-0.2l0,0l-0.3,0.1c-0.2,0-0.3-0.1-0.5-0.1h-0.2L576.9,685.8z"/>
			<path class="st43" d="M626.7,724v0.2c-0.1,0.1-0.1,0.1-0.2,0.2c-0.2-0.1-0.5-0.2-0.7-0.2l0,0l-0.3-0.1l-0.9,0.7v0.3
				c0,0.1,0,0.2,0.1,0.3c0.1,0.3,0.3,0.5,0.5,0.6c0.1,0.1,0.3,0.1,0.5,0.1c0.2,0.1,0.4,0.2,0.7,0.1c0.3-0.1,0.5-0.2,0.7-0.5l0.4,0.1
				h0.2c0.6-0.1,1.1-0.6,1.3-1.2v-0.2c0.2,0,0.4,0,0.5-0.1l0.2-0.1l0.2-0.4l0,0l0.3-0.5l-0.2-0.6c0-0.1,0-0.2,0-0.3v-0.3l-0.9-0.7
				l-0.3,0.1h-0.2l-0.6-0.5l-0.4,0.3C626.8,722.1,626.5,723.1,626.7,724z"/>
			<path class="st43" d="M556.7,865.9l-0.3,0.8v0.1c-0.2,0.4-0.3,0.8-0.2,1.2c0.1,0.3,0.4,0.6,0.7,0.7v0h0.1
				c0.2,0.1,0.5,0.1,0.7,0.1h0.3h0.1l1-0.3l0.1-0.3c0.1-0.3,0.1-0.5,0-0.8c0.1-0.4,0.1-0.9,0-1.3V866v-0.3l-0.8-0.7l-0.3,0.1
				c-0.4,0.1-0.9,0.3-1.2,0.6L556.7,865.9z"/>
			<path class="st43" d="M651.3,842.9l-0.1,0.2l0.2,0.6l0,0c0,0,0,0.1,0,0.1c-0.1,0.1-0.2,0.2-0.3,0.4l-0.1,0.3l0.6,1h0.3
				c0.4,0,0.8-0.1,1.2-0.3c0.1,0,0.2,0.1,0.3,0.1l0.6,0.1v-0.1c0.3,0,0.5-0.2,0.7-0.4c0.2-0.1,0.3-0.3,0.4-0.5l0.1-0.1v-0.6v-0.1
				c0-0.1-0.1-0.2-0.1-0.3l0.1-0.2v0l0,0c0.1-0.2,0.1-0.5,0-0.7c-0.1-0.3-0.3-0.5-0.6-0.6c-0.1-0.1-0.1-0.2-0.2-0.3l-0.1-0.2
				l-0.8-0.2l-0.2,0.1C652.3,841.5,651.6,842.1,651.3,842.9z"/>
			<path class="st43" d="M618.8,823.5l0.1,0.3l0.7,0.3l0.3,0.1l0.2-0.1h0.1c0.1,0,0.2-0.1,0.2-0.1l0.2,0.2h0.2
				c0.4,0,0.8-0.1,1.1-0.5c0.3-0.3,0.3-0.8,0.2-1.2c-0.1-0.4-0.4-0.6-0.8-0.7l0,0c-0.1-0.4-0.5-0.7-0.9-0.8h-0.2l-0.7,0.2l-0.2,0.3
				C618.8,822,618.6,822.8,618.8,823.5z"/>
			<path class="st43" d="M629,818.8L629,818.8l-0.4,0.2l0,0.1c-0.1,0.2-0.2,0.3-0.2,0.5c-0.2,0.1-0.3,0.2-0.4,0.3l-0.1,0.1l-0.1,0.6
				v0.2c0.1,0.3,0.4,0.5,0.7,0.6c0,0,0,0.1,0,0.1l0.2,0.7l0.2,0.1l0.1,0.3l0.2,0.1c0.3,0.4,0.8,0.6,1.2,0.4h0.2l0.3-0.4h0.1
				c0.7-0.1,1.2-0.7,1.3-1.4v-0.1c0.2-0.2,0.3-0.4,0.4-0.6l0.1-0.3l-0.7-0.9h-0.3l-0.2-0.8l-0.3-0.1c-0.2-0.1-0.3-0.1-0.5-0.1
				l-0.5-0.3l-0.6,0.3C629.5,818.5,629.2,818.7,629,818.8z"/>
			<path class="st43" d="M600.9,887c0,0.1,0,0.2,0.1,0.3c0.1,0.7,0.8,1.1,1.5,1c0,0,0.1,0,0.1,0l0.3-0.1l0.4-1.1l-0.2-0.3l-0.1-0.1
				c-0.2-0.4-0.6-0.7-1-0.8l-0.3-0.1l-0.8,0.9L600.9,887z"/>
			<path class="st43" d="M543.5,896c-0.4,0.4-0.5,0.9-0.3,1.4l0.2,0.4l0.9,0.3l0.2-0.1c0.2-0.1,0.5-0.2,0.7-0.3
				c0.4-0.1,0.7-0.3,1-0.5l0.1-0.1l0.2-0.8l-0.1-0.2c-0.3-0.7-0.9-1-1.8-0.8h-0.2h-0.2L543.5,896L543.5,896z"/>
			<path class="st43" d="M599.1,772.6c-0.1,0.1-0.1,0.1-0.2,0.2h-0.3l-0.4,0.2l-0.1,0.1c-0.1,0.1-0.3,0.3-0.3,0.4v0.1l-0.2,0.1
				l-0.3,0.9l0.1,0.2c0,0.1,0.1,0.2,0.1,0.2c0,0,0,0.1,0,0.3s0,0.3,0,0.5v0.1c0,0.1,0,0.2,0.1,0.3c0.1,0.3,0.3,0.6,0.6,0.7
				c0,0.1,0,0.2,0,0.3l0.1,0.2l0.6,0.5h0.2c0.3,0,0.6-0.1,0.8-0.3l0.4-0.2c0.5-0.2,1.1-0.4,1.6-0.7l0.1-0.1l0.3-0.5v-0.2
				c0-0.1,0-0.3,0-0.4v-0.1v-0.7l-0.1-0.1c-0.1-0.1-0.2-0.3-0.3-0.4l0,0c-0.4-0.7-1-1.8-2.4-1.6h-0.1L599.1,772.6L599.1,772.6z"/>
			<path class="st43" d="M492.3,802.3l-0.1-0.2l-0.5-0.2v-0.1c-0.2-0.4-0.6-0.7-1-0.8h-0.2c-0.2-0.1-0.4-0.2-0.6-0.2h-0.2l-0.7,0.6
				v0.2c0,0.2,0,0.3,0,0.5v0.3c0,0.2,0,0.3,0.1,0.4c0,0,0,0,0,0.1c-0.1,0.3-0.1,0.6,0,0.8c0,0.1,0.1,0.2,0.1,0.2l0.1,0.2l0.5,0.2
				l0,0.4l0.9,0.6l1.7-0.6l0.2-0.9l0-0.3l-0.1-0.1c0-0.3,0-0.5-0.1-0.8C492.4,802.6,492.3,802.5,492.3,802.3z"/>
			<path class="st43" d="M544.9,781.9l-0.2,0.1l-0.1,0.1l-0.3,0.5v0.2c0,0.2,0,0.4,0.1,0.6c0.2,0.4,0.5,0.8,0.9,1h0.1
				c0.2,0.5,0.7,0.8,1.3,0.7c0.5-0.1,0.8-0.5,0.9-0.9l0.1-0.3l-0.2-0.2l0.1-0.2l0.1-0.5l-0.4-0.3l0.1-0.2l-0.1-0.2
				c0.1-0.2,0.1-0.5,0-0.7v-0.1l-0.3-0.4l-0.1-0.1c-0.4-0.2-0.9-0.2-1.3,0.1C545.1,781.2,544.9,781.5,544.9,781.9z"/>
			<path class="st43" d="M628.9,774.4L628.9,774.4l-0.2,0.6l0.1,0.3l0,0c0.1,0.2,0.2,0.4,0.4,0.5c0,0.3,0.1,0.7,0.2,1
				c0.1,0.4,0.3,0.7,0.6,0.9l0.1,0.1l0.6,0.1l0.2,0c0.6-0.2,1.1-0.7,1.5-1.2c0.1-0.2,0.2-0.3,0.4-0.4l0.2-0.1l0.3-0.6v-0.1
				c0-0.1,0-0.3-0.1-0.4v-0.1c0.2-0.4,0.3-0.8,0.2-1.2l-0.1-0.3l-1.1-0.4l-0.3,0.2c-0.2,0.1-0.5,0.2-0.8,0.2
				C630.2,773.4,629.4,773.8,628.9,774.4z"/>
			<path class="st43" d="M544,807.1c-0.1-0.2-0.2-0.4-0.4-0.5l-0.1-0.1l-0.5-0.1h-0.1h-0.4c-0.5,0-1,0.2-1.5,0.5
				c-0.3,0.3-0.6,0.7-0.6,1.2l-0.2,0.2l0.2,0.4c-0.1,0.2-0.1,0.3-0.1,0.5v0.3l0.3,0.2l0,0l0.1,0.1c0.2,0.5,0.7,0.8,1.2,0.7h0.2
				l0.1-0.2c0.5,0.1,0.9,0,1.4-0.2l0.2-0.1l0.1-0.5c0.2-0.1,0.4-0.3,0.4-0.6c0.1-0.3,0.1-0.6,0-0.9c-0.1-0.2-0.2-0.4-0.3-0.5
				C544,807.4,544,807.3,544,807.1L544,807.1z"/>
			<path class="st43" d="M505.2,772.3L505.2,772.3L505,772l-0.5-0.1l0,0l-0.1,0c-0.3-0.3-0.8-0.3-1.2-0.2c-0.4,0.2-0.6,0.6-0.5,1
				v0.3l0.3,0.2l0.1,0.3l0.9,0.5l0.6-0.2l0,0c0.5-0.1,0.8-0.7,0.7-1.2C505.3,772.5,505.2,772.4,505.2,772.3z"/>
			<path class="st43" d="M484,780.3c0-0.3,0-0.6-0.1-0.8c-0.2-0.6-0.7-1.1-1.3-1.5l-0.1,0l-0.4-0.1h-0.1c-1.3-0.1-2.3,0.9-2.4,2.2
				c0,0.1,0,0.2,0,0.3c-0.1,0.2-0.1,0.5-0.1,0.8l0,0l0.2,0.4h0.2c0.1,0.2,0.2,0.3,0.4,0.5c0.1,0.1,0.3,0.2,0.4,0.2l0,0
				c0.2,0.1,0.4,0.2,0.6,0.2l0.2,0.2l0.3-0.1c0.6-0.1,1.1-0.5,1.4-1C483.8,781.3,484,780.8,484,780.3L484,780.3z"/>
			<path class="st43" d="M582.2,751.1c-0.3,0.2-0.4,0.2-0.6,0.2h-0.2l-0.6,0.4l-0.1,0.2c-0.3,0.8-0.3,1.8,0,2.6l0.1,0.3l0,0l0.3,0.1
				L581,755l0.5,0.3c0.8,0.4,1.8,0.4,2.7,0c0.3-0.1,0.5-0.4,0.6-0.6l0,0l0.5-0.4l-0.1-0.3l0.3-0.1l-0.3-0.7l0,0l0,0h0.1
				c0.1-0.2,0.1-0.5,0-0.7c-0.1-0.3-0.3-0.5-0.5-0.6v-0.1l-0.6-0.3l-0.2-0.1h-0.2l-0.2-0.1c-0.1-0.1-0.2-0.1-0.3-0.2l-0.1-0.1h-0.6
				l-0.1,0.1L582.2,751.1z"/>
			<path class="st43" d="M564.5,748.7c-0.2,0.2-0.3,0.5-0.4,0.8l0,0h-0.1l-0.5,0.6v0.2c0,0.3,0,0.5,0.1,0.8c0,0.1,0.1,0.3,0.2,0.4
				c0,0.1,0.1,0.1,0.1,0.2l0.1,0.3l0.9,0.4h0.1h0.1c0.3,0.1,0.6,0.2,0.9,0.2c0.3-0.1,0.6-0.2,0.9-0.3h0.1l0.2-0.1
				c0.3-0.1,0.4-0.4,0.5-0.7l0,0V751c0-0.1,0-0.1,0-0.2v-0.5l-0.1-0.2l0,0c0,0,0-0.1,0-0.1c0-0.2,0-0.5-0.1-0.7l0,0l-0.1-0.3
				l-0.6-0.3l-0.2-0.1l-0.2,0.1l-0.2-0.1c-0.2-0.1-0.5-0.2-0.8-0.2h-0.1L564.5,748.7L564.5,748.7z"/>
			<path class="st43" d="M575.1,753.3c-0.4,0.5-0.5,1.2-0.3,1.8c0.1,0.3,0.3,0.6,0.5,0.9c0,0.2,0,0.4,0.1,0.5l0.2,0.6l0.6,0.2
				c0.1,0.2,0.3,0.3,0.5,0.4c0.2,0.1,0.5,0.1,0.8,0.1h0l0.7,0.2l0.3-0.3c0.1-0.1,0.2-0.1,0.3-0.2c0.7-0.2,1.2-0.7,1.2-1.4V756
				c0.1-0.2,0.1-0.4,0-0.6l0.1-0.2V755c0-0.1,0-0.2-0.1-0.3c-0.1-0.5-0.5-0.9-1-1l-0.2-0.4l-0.1-0.1c-0.3-0.2-0.6-0.3-0.9-0.3
				l-0.2-0.2h-0.2l-0.2-0.1h-0.1c-0.5-0.3-1.2-0.1-1.5,0.4C575.5,753,575.2,753.1,575.1,753.3z"/>
			<path class="st43" d="M534.6,758.5c-0.1,0.1-0.2,0.1-0.3,0.2h-0.2l-0.4,0.8l0,0l0,0c-0.1,0.1-0.2,0.2-0.3,0.2l-0.1,0.1l-0.2,0.6
				l0.1,0.3c0.2,0.6,0.9,1.1,1.5,1.1c0.2,0,0.4-0.1,0.6-0.2h0.2l0.5,0.2l0.7-0.2l0.4-0.9l-0.3-0.9l0,0v-0.1v-0.5l-0.8-0.7l0,0
				c-0.2-0.3-0.6-0.4-1-0.3h-0.1L534.6,758.5L534.6,758.5z"/>
			<path class="st43" d="M528.1,835.9c-0.4,0.2-0.7,0.6-0.8,1l-0.1,0.4l1.1,0.8l0.3-0.2h0.1c0.4,0,0.8-0.3,1-0.6
				c0.1-0.3,0.2-0.6,0.1-0.9c0-0.1-0.1-0.3-0.2-0.4l-0.1-0.2l-1-0.2l-0.2,0.2L528.1,835.9z"/>
			<path class="st43" d="M500.4,843.1c-0.3,0.7-0.3,1.4-0.1,2.1c0.2,0.6,0.6,1,1.1,1.3l0.4,0.2l0.7-0.7l0,0c0,0,0,0.1-0.1,0.1
				l0.2-0.1c0.5-0.2,1-0.6,1.2-1.1v-0.1v-0.4v-0.1c-0.1-0.2-0.1-0.4-0.1-0.5c0-0.2-0.1-0.3-0.1-0.5c-0.1-0.3-0.2-0.5-0.4-0.7
				l-0.1-0.2l-0.8-0.2l-0.2,0.1c-0.3,0.1-0.6,0.2-0.9,0.2H501l-0.6,0.4L500.4,843.1z"/>
			<path class="st43" d="M502,849.2c0,0,0,0.1,0,0.1c0,0.2-0.1,0.3-0.1,0.5v0.3l0.7,0.5c0.2,0.3,0.6,0.5,1,0.5l0.1,0.1h0.1
				c0.4,0.1,0.9-0.1,1.2-0.4l0.1-0.1l0.2-0.7l-0.1-0.2c-0.1-0.2-0.3-0.5-0.5-0.6l-0.1-0.6l-0.2-0.1c-0.4-0.2-0.8-0.3-1.3-0.2h-0.2
				h-0.3L502,849L502,849.2z"/>
			<path class="st43" d="M565.2,836.6v-0.2l-0.3-0.6l-0.2-0.1c-0.1-0.1-0.3-0.1-0.4-0.2v-0.2l-1.4-0.4l-0.3,0.3
				c-0.1,0-0.1,0.1-0.2,0.1c-0.3,0.1-0.6,0.3-0.9,0.5c-0.2,0.2-0.3,0.5-0.3,0.8l-0.5,0.5l0.1,0.3l-0.2,0.1l-0.4,0.9v0.1l0,0.2
				l0.3,0.6c-0.1,0.2-0.1,0.4-0.1,0.7c-0.2,0.3-0.2,0.6-0.2,0.9v0.2l0.3,0.5l0.1,0.1c0.2,0.1,0.4,0.2,0.6,0.2l0.4,0.3l0.3-0.1
				c0.2-0.1,0.5-0.1,0.7-0.3c0.2,0.1,0.5,0.1,0.7,0c0.3-0.1,0.5-0.3,0.6-0.6c0.1-0.3,0.1-0.5,0-0.8c-0.1-0.2-0.2-0.4-0.4-0.5l0,0
				l0.1-0.1h0.2l0.5-0.3l0.1-0.1c0.1-0.1,0.1-0.2,0.1-0.4l0.1-0.1v-0.1c0.3-0.5,0.4-1.1,0.3-1.6
				C565.1,836.9,565.2,836.7,565.2,836.6z"/>
			<path class="st43" d="M591.8,824l-0.7-0.7H591c-0.1-0.2-0.3-0.3-0.5-0.4h-0.1l-0.6-0.6l-0.3,0.1c-0.5,0.1-1,0.4-1.3,0.9
				c-0.3,0.6-0.3,1.2-0.1,1.8c0,0.1,0.1,0.3,0.2,0.4l-0.2,0.7l0.2,0.3c0,0.1,0.1,0.1,0.1,0.2c0,0,0,0.1,0,0.1v0.1c0,0.1,0,0.1,0,0.2
				c0.1,0.2,0.2,0.5,0.4,0.7c0.2,0.2,0.4,0.3,0.7,0.3c0.2,0.2,0.5,0.4,0.8,0.4h0.3l0.3-0.3c0.2,0.1,0.4,0.1,0.5,0.1h0.3l0.4-0.8
				l0.1-0.2h0.3h0.2l0.6-0.8v-0.2c0-0.1,0-0.3-0.1-0.4c0-0.1,0.1-0.2,0.1-0.3v-0.3l-0.2-0.2l0.1-0.3l-1-0.8l-0.3,0.1
				C591.9,823.9,591.8,823.9,591.8,824z"/>
			<path class="st43" d="M634.9,807.9c0.1,0.3,0.2,0.5,0.4,0.7l0.2,0.1h0.9l0.3-0.2c0.6-0.4,0.9-1.1,0.8-1.8v-0.2l-0.6-0.5h-0.2
				c-0.6-0.1-1.1,0.1-1.5,0.6C634.8,806.9,634.7,807.4,634.9,807.9z"/>
			<path class="st43" d="M545.3,825.5l-0.2-0.4l-0.1-0.1c-0.4-0.4-1.1-0.4-1.5-0.1c-0.5,0.3-0.8,1-0.6,1.5c0.1,0.4,0.5,0.7,0.9,0.8
				l0.3,0.1l0.5-0.5l0,0l0,0c0.5-0.2,0.7-0.7,0.6-1.3L545.3,825.5z"/>
			<path class="st43" d="M524,822.2l-0.1,0.1c-0.3,0-0.6,0.1-0.8,0.3l-0.1,0.1l-0.2,0.5v0.1c-0.1,0.2-0.1,0.5,0,0.7
				c0,0.1,0.1,0.2,0.1,0.3l0.1,0.3l0.5,0.1c0,0,0,0.1,0,0.2c0,0.1,0.1,0.3,0.2,0.4l0.1,0.2l0.8,0.2l0.2-0.1c0.5-0.2,0.9-0.6,1-1.2
				V824l-0.7-0.5v-0.1l0,0c0-0.1,0-0.3-0.1-0.4c-0.1-0.4-0.5-0.7-1-0.7L524,822.2z"/>
			<path class="st43" d="M548.8,809.7c-0.2,0.3-0.3,0.7-0.2,1.1c0.1,0.3,0.4,0.6,0.7,0.7l0.3,0.1l0.3-0.2c0.4,0.3,0.7,0.6,1,1
				l0.1,0.2l1,0.2l0.2-0.1h0.2c0.3,0,0.6-0.1,0.8-0.3c0.3-0.1,0.5-0.2,0.7-0.4l0.2-0.1l0.3-0.5v-0.3c0.1-0.2,0.1-0.4,0.1-0.6v-0.3
				L554,810c0-0.1,0-0.2-0.1-0.3c0-0.1-0.1-0.2-0.1-0.2l-0.1-0.2l-0.3-0.1c0-0.1,0-0.1,0-0.2l0,0l-0.2-0.4l-0.9-0.3l-0.2,0.1
				c-0.2,0.1-0.4,0.1-0.6,0.2c-0.4,0.1-0.7,0.2-1,0.3c-0.2-0.1-0.5-0.2-0.7-0.3h-0.4L548.8,809.7L548.8,809.7z"/>
			<path class="st43" d="M452.1,840.9l-0.3,0.2c-0.3,0-0.7,0.1-0.9,0.4c-0.2,0.3-0.3,0.7-0.2,1.1l0.1,0.2l0.5,0.3v0
				c0.1,0.4,0.3,0.7,0.7,0.8l0.3,0.1l0.9-0.4l0.1-0.3c0.2-0.5,0.2-1,0.1-1.5c0-0.1-0.1-0.3-0.2-0.4l0.4-0.3h-0.8
				c-0.1-0.1-0.2-0.1-0.3-0.2L452.1,840.9z"/>
			<path class="st43" d="M555.3,818.1l0.1,0.2l0.8,0.4l0.2,0c0.5-0.1,0.9-0.4,1.2-0.8c0.2-0.3,0.2-0.7,0.1-1c0-0.1-0.1-0.1-0.1-0.2
				l-0.1-0.2l-0.9-0.3l-0.2,0.1C555,816.8,555.1,817.7,555.3,818.1z"/>
			<path class="st43" d="M575.4,814.7c0.2,0.4,0.5,0.7,1,0.8h0.3l0.7-0.7v-0.1c0.2-0.3,0.3-0.6,0.3-1v-0.2l-0.7-0.5h-0.2
				c-0.4,0.1-0.8,0.3-1.1,0.7C575.3,813.9,575.3,814.4,575.4,814.7z"/>
		</g>
		<g class="st42">
			
				<rect x="505.3" y="770.5" transform="matrix(2.390878e-02 -0.9997 0.9997 2.390878e-02 -275.9192 1459.8215)" class="st12" width="208.7" height="201.3"/>
			<path class="st43" d="M514.9,865.5c0-0.6-0.5-1.1-1.1-1.1l0,0h-0.4l-0.6,0.8v0.2c0.1,0.4,0.2,1.5,1.2,1.5l0,0
				c0.4,0,0.8-0.2,1-0.6l0.2-0.3L514.9,865.5L514.9,865.5z"/>
			<path class="st43" d="M638.2,767.9l-0.5-0.2l-0.2-0.1h-0.2c-0.6-0.1-1.1,0.3-1.2,0.9v0.2l0,0c-0.1,0.1-0.1,0.3-0.1,0.4v0.3
				l0.7,0.8h1.2l0.7-0.6v-0.2c0.1-0.5,0-1-0.3-1.4L638.2,767.9z"/>
			<path class="st43" d="M635.8,780.4l-1.1-0.3h-0.1c-0.1,0-0.1,0-0.2,0c-0.1,0-0.2,0-0.4,0h-0.2l-0.7,0.4l-0.1,0.2
				c-0.2,0.3-0.1,0.8,0.1,1.1v0.1l0.6,0.5h0.2h0.3c0.4,0,0.9-0.1,1.2-0.4c0.2-0.3,0.4-0.7,0.3-1L635.8,780.4z"/>
			<path class="st43" d="M656.7,807.6h0.5l0.6-0.6v-0.2c0.1-0.7-0.3-1.3-1-1.4c-0.1,0-0.1,0-0.2,0h-0.1l-0.2-0.1l-1,0.5l-0.1,0.3
				c-0.1,0.4,0,0.8,0.3,1.1C655.9,807.4,656.3,807.6,656.7,807.6z"/>
			<path class="st43" d="M656.9,828.3v-1l-0.6-0.5l-0.2-0.2H656c0-0.1,0-0.1-0.1-0.2l0,0l-0.1-0.2l0,0c-0.3-0.3-0.8-0.5-1.3-0.5
				h-0.7l-0.7,0.7l0,0H653l-0.5,0.5v0.2c-0.1,0.5,0,1,0.3,1.3l0,0l-0.1,0.3l0.5,0.9l0.3,0.1l0.2,0.1c0.1,0.1,0.3,0.1,0.5,0.1
				c0.4,0,0.8-0.2,1.1-0.6h0.1l1.2-0.7v-0.1L656.9,828.3z"/>
			<path class="st43" d="M656.2,797.7L656.2,797.7l0.2,0.1h0.1h0.3c0.2,0,0.4,0,0.6-0.1c0.1,0,0.2,0.1,0.3,0.1c0.5,0,0.9-0.4,1-0.8
				l0-0.2l-0.3-0.6l-0.4,0.3l0.3-0.4l-0.3-0.3l-0.1-0.1c-0.2-0.4-0.6-0.7-1.1-0.7c-0.1,0-0.2,0-0.3,0h-0.1l-0.3,0.1l-0.1,0.1
				c-0.3,0.2-0.4,0.5-0.4,0.8c0,0.1,0,0.2,0,0.4c-0.1,0.1-0.1,0.3-0.1,0.4C655.6,797.1,655.8,797.5,656.2,797.7z"/>
			<path class="st43" d="M633.6,841.4L633.6,841.4l-0.5-0.9l-0.5-0.2c-0.5-0.2-1-0.3-1.5-0.3c-0.2,0-0.4,0-0.6,0h-0.3l-0.2,0.5
				c-0.3,0.1-0.6,0.3-0.7,0.5c-0.3,0.5-0.3,1.2,0,1.8c0.2,0.6,0.5,1.1,1.1,1.4l0.2,0.1l0.7-0.2h0.1c0.2,0.1,0.4,0.1,0.6,0.1h0.4
				l0.3-0.1l0,0c0.2-0.1,0.4-0.4,0.5-0.6c0.3-0.2,0.4-0.5,0.5-0.9l0,0c0,0,0-0.1,0-0.1l0.1-0.2l-0.1-0.7L633.6,841.4z"/>
			<path class="st43" d="M605.6,890.6v0.3l0.7,0.7h0.3l0.1,0.1l0.3,0.3l1.2-0.6v-1.2l-0.6-0.7h-0.2H607
				C606.3,889.4,605.7,889.8,605.6,890.6C605.6,890.6,605.6,890.6,605.6,890.6z"/>
			<path class="st43" d="M607,913.2l-0.7,0.6v0.3c-0.1,0.6,0.2,1.3,0.7,1.6l0.3,0.2l0.8-0.4l0.3-0.2v-0.3c0.1-1.4-0.7-1.7-1.1-1.7
				L607,913.2z"/>
			<path class="st43" d="M615.6,894l0.5-0.2l0.1-0.1c0.4-0.4,0.6-1,0.4-1.5c-0.2-0.5-0.6-0.8-1.1-0.8h-0.3l-0.7,0.8v0.2v0.1
				c-0.1,0.4,0,0.8,0.2,1.1c0.2,0.2,0.5,0.4,0.8,0.4L615.6,894z"/>
			<path class="st43" d="M615.7,809.5c-0.1,0.7,0.3,1.4,1,1.5c0,0,0.1,0,0.1,0h0.2l0.1-0.1l0.4,0.2l0.3,0.1l0,0
				c0.1,0,0.1,0.1,0.2,0.1h0.1l0.6-0.1l0.1-0.1l0.3-0.2c0.1-0.1,0.3-0.2,0.5-0.3h0.1l0.5-0.4v-0.1l0.3-0.3c0.4-0.3,0.5-0.7,0.3-1.2
				v-0.1l0,0c0.1-0.6-0.3-1.2-0.9-1.5l-0.2-0.2h-0.1c-0.2-0.1-0.3-0.2-0.5-0.2h-0.1l-0.1-0.1l-0.7-0.2l-0.3-0.1l-0.2,0.2
				c-0.1,0-0.3,0.1-0.4,0.1l0,0l0,0h-0.3l-0.5,0.1v0.3c-0.1,0.1-0.2,0.1-0.3,0.2c-0.2,0.2-0.3,0.4-0.3,0.6c-0.2,0.2-0.3,0.5-0.4,0.8
				v0.2l0.4,0.5L615.7,809.5z"/>
			<path class="st43" d="M616.2,850.6v-0.2l-0.4-0.7h-0.1c0-0.2-0.1-0.3-0.2-0.5l-0.1-0.1l-0.5-0.2h-0.1c-0.4,0-0.8,0.2-0.9,0.6
				c-0.5,0.7-0.4,1.6,0.3,2.1c0,0,0,0,0,0l0.3,0.3l0.4-0.3h0.1C615.7,851.7,616.2,851.3,616.2,850.6
				C616.2,850.6,616.2,850.6,616.2,850.6z"/>
			<path class="st43" d="M614.3,832.3l0.7-0.4l0.1-0.2c0,0,0-0.1,0.1-0.1c0.1-0.1,0.2-0.3,0.2-0.5l0.1-0.2l-0.4-0.9l-0.5-0.1h0
				c-0.7,0-1.2,0.5-1.3,1.2c-0.1,0.6,0.3,1.1,0.9,1.2L614.3,832.3z"/>
			<path class="st43" d="M675,815.3v0.3l0.3,0.6l0.1,0.1c0.2,0.1,0.4,0.2,0.6,0.2c0.6,0,1.2-0.5,1.2-1.2c0,0,0,0,0,0
				c0-0.1,0-0.2,0-0.3v-0.2c0.1-0.3,0.1-0.6,0-0.9c-0.2-0.3-0.4-0.5-0.8-0.6l-0.3-0.1l-0.4,0.3h-0.1h-0.2l-0.7,0.4l-0.1,0.2
				c-0.2,0.4-0.1,0.8,0.2,1.1C674.8,815.2,674.9,815.3,675,815.3z"/>
			<path class="st43" d="M510.2,908.6l-0.3-0.2l-1.2,0.6v0.8l0.1,0.3h-0.1c-0.4,0.1-0.6,0.4-0.7,0.8L508,911l0.5,0.7l0,0
				c0.2,0.2,0.4,0.3,0.6,0.4h0.2l0.6-0.2l0.1-0.1c0.3-0.3,0.4-0.6,0.4-1c0-0.1-0.1-0.3-0.1-0.4c0.4-0.1,0.6-0.5,0.7-0.8l0.1-0.3
				l-0.7-0.9L510.2,908.6z"/>
			<path class="st43" d="M564.3,823.2l0.1,0.1l0.5,0.3h0.8l0.2-0.4c0.2-0.1,0.4-0.2,0.5-0.4c0.3-0.2,0.4-0.4,0.5-0.7l0.1-0.3
				l-0.4-0.5l0,0l0,0.1v-0.2c-0.1-1-0.6-1.2-1-1.2c-0.4,0-0.7,0.2-0.9,0.5l-0.3,0.3v0.1l-0.1,0.2v0.1l-0.3,0.3v0.9l0,0
				C564,822.6,564.1,822.9,564.3,823.2z"/>
			<path class="st43" d="M551.2,786.4l-0.1-0.2c0.1-0.4-0.1-0.9-0.5-1.2l-0.2-0.2L550,785l0,0l-0.6,0.2l0,0h-0.1l0,0
				c-0.1,0-0.1,0-0.2,0v0.1l-0.1-0.2c-0.3,0.1-0.5,0.3-0.6,0.6l0,0l0,0l0,0c-0.4,0.1-0.7,0.4-0.8,0.8l-0.1,0.2l0.1,0.2
				c-0.1,0.2-0.2,0.4-0.2,0.6l-0.1,0.1l-0.2,0.5v1.1l0.7,0.7h0.3c0.1,0,0.2,0,0.2,0c0.2,0,0.3,0.1,0.5,0.1c0.3,0,0.5-0.1,0.8-0.2
				l0.1-0.1l0.4-0.5V789c0-0.2,0.1-0.3,0-0.5c0.3-0.1,0.6-0.3,0.7-0.5c0.2-0.4,0.1-0.8-0.1-1.1l0.2-0.2L551.2,786.4z"/>
			<path class="st43" d="M574.3,793l0.2,0L574.3,793l0.3,0.6l0.2,0.1c0.1,0.1,0.3,0.1,0.5,0.1c0.2,0,0.4-0.1,0.6-0.2h0.3l0.2-0.1
				c0.2,0,0.4-0.1,0.5-0.2l0.2-0.1l0.1-0.2l0.7-0.5v-0.1v0c0.3-0.3,0.4-0.7,0.3-1.2c-0.1-0.3-0.4-0.6-0.7-0.7l-0.2-0.1l0,0l-0.1-0.2
				l-0.3-0.1h-0.2c-0.3-0.4-0.9-0.5-1.3-0.2c-0.1,0.1-0.2,0.2-0.2,0.2h-0.5v0.8l0,0c-0.2,0.2-0.2,0.5-0.1,0.8l0,0l-0.3,0.3
				L574.3,793z"/>
			<path class="st43" d="M534.4,893.3c-0.1,0.4,0,0.8,0.2,1.1l0.2,0.3h0.9h0.4l0.1-0.2c0.3-0.1,0.6-0.3,0.8-0.6v-0.1h0.2l-0.1-0.6
				l0.2-0.1l-0.4-1.3h-0.1c-0.2-0.4-0.6-0.7-1.1-0.8h-0.2l-0.7,0.4c0,0.1-0.1,0.2-0.1,0.3l-0.2,0.1l-0.1,0.7v0.2l0.1,0.2
				C534.4,893.1,534.5,893.2,534.4,893.3z"/>
			<path class="st43" d="M540.4,822l0.1-0.2l-0.8-0.7l-0.3-0.3l-0.2,0.1c-0.3-0.2-0.7-0.4-1-0.4h-0.4h-0.1l-0.3,0.2l-0.1,0.1
				c-0.5,0-0.9,0.4-1,0.9l-0.2,0.2l0.1,0.3c0.1,0.4,0.2,0.8,0.4,1.2c0,0.1,0.1,0.3,0.1,0.3v0.4l1,0.3l0.1-0.2l-0.1,0.3h0.1
				c0.1,0,0.2,0.1,0.4,0.1c-0.3,0-0.6,0.1-0.9,0.3h-0.1l-0.7,0.6v0.2c-0.2,0.7,0.2,1.4,0.9,1.6c0,0,0.1,0,0.1,0h0.4l0.2-0.2h0.3
				l0.5-0.2l0.1-0.1c0.2-0.2,0.3-0.5,0.2-0.8l0,0c0.1-0.3,0.1-0.6-0.1-0.8l-0.1-0.1l-0.5-0.4h-0.1l0,0c0.1,0,0.2,0,0.3,0
				c0.2,0,0.5-0.2,0.6-0.3c0.3,0,0.6-0.1,0.8-0.3h0.1l0.2-0.2l0,0C540.6,823.2,540.6,822.6,540.4,822L540.4,822z"/>
			<path class="st43" d="M540.8,924.3l-0.2-0.2h-0.8l-0.5,0.4l0,0c-0.1,0.1-0.2,0.3-0.3,0.5l-0.1,0.3l0.5,0.7l0.1,0.1l0.5,0.5h0.4
				c0.5,0,1-0.3,1.2-0.7l0.4-0.1l-0.5-1.7L540.8,924.3z"/>
			<path class="st43" d="M689.2,883l-0.6-0.5h-0.3c-0.4,0-0.8,0.1-1.2,0.2c-0.1,0-0.2,0.1-0.3,0.1h-0.3l-0.7,0.7v0.3
				c0,1.1,0.7,2,1.7,2.3l0.4,0.1l0.4-0.5l0.3-0.1l0.1-0.1c0.2-0.2,0.3-0.5,0.3-0.8l0,0v-0.1c0.2-0.4,0.3-0.9,0.2-1.3L689.2,883z"/>
			<path class="st43" d="M675.1,920.6c0.1-0.3,0.1-0.5,0-0.8v-0.1l-0.4-0.4l-0.4-0.1h0c-0.7,0-1.3,0.5-1.4,1.2v0.1l-0.2,0.2v0.2
				c0,0.3,0,0.5,0,0.8c-0.2,0.2-0.3,0.4-0.4,0.7v0.3l0.6,0.8h0.4c0.7,0,1.4-0.6,1.5-1.3V922c0.3-0.2,0.5-0.6,0.5-1
				C675.3,920.8,675.2,920.7,675.1,920.6z"/>
			<path class="st43" d="M688,842c0.1,0,0.3-0.1,0.4-0.1c0.2,0,0.5-0.1,0.7-0.2h0.4l0.5-0.6v-0.2c0.1-0.4,0-0.7-0.3-1
				c-0.2-0.2-0.5-0.3-0.8-0.3c-0.1,0-0.2,0-0.3,0l-0.1-0.1c-0.3-0.3-0.7-0.6-1.1-0.6h-0.2l-0.3,0.3h-0.5l-0.7,0.6v0.2
				c-0.1,0.6,0.1,1.2,0.5,1.7l0.1,0.1l0.1,0.3l1.3,0.1L688,842z"/>
			<path class="st43" d="M673.6,911.4l0.4,0.1l0.8-0.8v-0.3c0.1-0.6-0.4-1.2-1-1.3c0,0-0.1,0-0.1,0h-0.3l-0.2,0l0,0.1h-0.1
				c-0.1,0-0.2,0-0.3,0h-0.2l-0.6,0.7v0.8l0.7,0.7L673.6,911.4L673.6,911.4z"/>
			<path class="st43" d="M654.3,820.8c0,0.3,0.1,0.6,0.4,0.8l0.1,0.5l0.2,0.2c0.5,0.4,1,0.6,1.6,0.6c0.1,0,0.2,0,0.3,0l0.4,0.2
				l0.5-0.5c0.3,0,0.5,0,0.8-0.2c0.1-0.1,0.3-0.2,0.3-0.3c0.1-0.1,0.2-0.2,0.3-0.3l0-0.1l0.1-0.3v-0.1c0.1-0.4,0-0.9-0.1-1.3
				c0-0.1,0-0.2,0-0.3v-0.3l-0.7-0.6h-0.2c-0.1,0-0.2,0-0.3-0.1c-0.3-0.1-0.5-0.2-0.8-0.2H657c-0.1,0-0.2,0.1-0.3,0.1l-0.3-0.2
				l-0.2,0.1c-0.4,0.1-0.7,0.5-0.8,0.9l-0.4,0.2l-0.1,0.1c-0.1,0.1-0.1,0.2-0.1,0.3C654.5,820.2,654.3,820.5,654.3,820.8z"/>
			<path class="st43" d="M668.9,926.7c0,0-0.1,0-0.1-0.1c-0.1-0.1-0.3-0.2-0.5-0.2l-0.3-0.1l-1,0.6v0.3c0,0.4,0.1,0.7,0.3,1
				c0.2,0.2,0.5,0.4,0.9,0.4c0.4,0,0.7-0.2,1-0.4l0.2-0.2l-0.3-1.1L668.9,926.7z"/>
			<path class="st43" d="M708.5,939.5l-0.1-0.1c-0.2-0.2-0.5-0.3-0.8-0.3c-0.1,0-0.2,0-0.3,0c-0.3-0.3-0.6-0.4-1-0.4h-0.4l-0.4,0.5
				h-0.1c-0.4,0.2-0.7,0.6-0.7,1c0,0.2,0,0.4,0.1,0.5c0,0.2,0.1,0.4,0.2,0.6c0.2,0.3,0.5,0.5,0.9,0.5h0.3l0.1-0.1h0.2
				c0.2,0.3,0.5,0.4,0.8,0.4c0.5,0,0.9-0.3,1-0.8l0,0v-0.2l0,0c0-0.2,0-0.2,0-0.3c0.1-0.1,0.2-0.3,0.2-0.4l0.1-0.2L708.5,939.5z"/>
			<path class="st43" d="M655.5,973.1h-0.2c0-0.1-0.1-0.1-0.1-0.2c0.2-0.2,0.3-0.4,0.4-0.6l0,0l0.2-0.2l-0.4-1.1l-0.3-0.1
				c-0.1,0-0.2,0-0.3,0c-0.3,0-0.6,0.1-0.8,0.3c-0.1,0.1-0.2,0.2-0.3,0.4c-0.4,0.3-0.5,1-0.1,1.4l-0.3,0.3v0.2
				c-0.1,0.6,0.2,1.3,0.7,1.6l0.2,0.1c-0.1,0.2-0.1,0.4-0.1,0.6v0.2l0.3,0.3l0,0l0.3,0.5h0.6c0.1,0,0.2,0.1,0.3,0.1l0.3,0.1l0.9-0.6
				V976c0-0.1,0-0.1,0-0.2l0.7-0.4l-0.1-0.5C657.2,974,656.5,973.3,655.5,973.1z"/>
			<path class="st43" d="M546.4,858.6l-0.6-0.5h-0.1c-0.3-0.3-0.6-0.5-1.1-0.6c-0.3,0-0.6,0.1-0.8,0.4h-0.1l-0.1,0.1
				c-0.2,0.2-0.3,0.4-0.4,0.6l-0.1,0.3L543,859l-0.1,1l0.3,0.2c0.2,0.2,0.5,0.3,0.7,0.3c0.4,0.3,0.8,0.4,1.2,0.4h0.1l0.2,0.1l1-0.5
				v-0.3c0.1-0.5,0-0.9-0.1-1.4L546.4,858.6z"/>
			<path class="st43" d="M535.4,955.3l-0.2-0.2h-0.6l0,0h-0.1c-0.1-0.1-0.2-0.3-0.3-0.4l-0.2-0.2l-1.2,0.2l-0.1,0.3
				c-0.2,0.4-0.2,0.8-0.1,1.2c-0.1,0.1-0.1,0.1-0.2,0.2l-0.3,0.5h0.1c0,0.1,0,0.1,0,0.2c0,0.2,0.1,0.4,0.2,0.5
				c0,0.2,0.1,0.4,0.3,0.6l0.1,0.1l0.5,0.2h0.1c0.1,0,0.2,0,0.3,0l0.2,0.2l0,0l0,0c0.2,0.2,0.4,0.3,0.7,0.3c0.3,0,0.6-0.1,0.8-0.4
				l0.3-0.1l0.2-0.1l0.5-0.7v-0.2C536.3,956.8,536,955.9,535.4,955.3z"/>
			<path class="st43" d="M564.8,931.5h-0.3L564,932l-0.2,0.2v0.3c0,0.1,0,0.2,0,0.3l-0.3,0.1l-0.1,0.2c-0.2,0.4-0.1,0.8,0.1,1.2
				c0.2,0.4,0.6,0.6,1,0.6c0.4,0,0.8-0.2,0.9-0.5l0,0c0.4,0,0.8-0.2,1-0.6l0.1-0.2V933l-0.2-0.3C566.1,932,565.5,931.6,564.8,931.5z
				"/>
			<path class="st43" d="M565.7,942.6L565.7,942.6l-0.1-0.4v-0.1c-0.1-0.2-0.2-0.3-0.4-0.4c0-0.2,0-0.3-0.1-0.5l-0.1-0.1l-0.5-0.3
				h-0.1c-0.3,0-0.6,0.2-0.8,0.4h-0.1h-0.7l-0.2,0.2h-0.3l-0.2,0.2c-0.5,0.1-0.8,0.5-0.8,1v0.2l0.2,0.4c0,0,0,0.1,0,0.1
				c-0.1,0.7,0.2,1.4,0.8,1.8l0,0h0.1c0.1,0.2,0.3,0.4,0.4,0.6l0.2,0.2l1.1-0.3l0.1-0.2h0.8l0.2-0.2c0.1-0.1,0.2-0.3,0.3-0.5
				l0.5-0.3l-0.1-0.7C565.8,943.3,565.8,942.9,565.7,942.6z"/>
			<path class="st43" d="M511.3,892.8H511c-0.7-0.1-1.3,0.4-1.4,1.1c0,0,0,0,0,0.1v0.3l0.9,0.8l0.3-0.1h0.1c0.5,0,0.9-0.3,1.1-0.7
				l0.2-0.3l-0.6-1.1L511.3,892.8z"/>
			<path class="st43" d="M522.6,835.9c-0.2-0.5-0.7-0.8-1.2-0.8h-0.4l-0.6,0.8v0.3c0,0.3,0,0.5,0,0.8c0,0.4,0,0.8,0.1,1.2l0.1,0.2
				l0.6,0.5h0.2c0.8,0,1.2-0.5,1.4-1.5c0-0.1,0-0.1,0-0.2l0.1-0.2L522.6,835.9L522.6,835.9z"/>
			<path class="st43" d="M619.4,930.5c0-0.1-0.1-0.2-0.1-0.2l0.1-0.2v-0.1v-0.4v-0.1c-0.1-0.2-0.2-0.3-0.3-0.5l0-0.1v-0.2l-0.8-0.6
				h-0.3h-0.3c0,0-0.1,0-0.2-0.1s-0.3-0.1-0.5-0.2l0,0l0,0c-0.4-0.1-0.9,0-1.2,0.3c-0.1,0-0.2,0-0.3,0h-0.2l-0.6,0.4l-0.1,0.2
				c-0.1,0.3-0.1,0.6,0,0.8v0.5c0,0.5,0.1,1.1,0.2,1.8v0.2l0.4,0.5l0.2,0.1c0.1,0.1,0.3,0.1,0.4,0.1l0.1,0.1l0.7,0.2l0.2,0l0.5-0.1
				l0,0c0.8-0.1,2-0.4,2.3-1.7v-0.1L619.4,930.5L619.4,930.5z"/>
			<path class="st43" d="M628.2,819.9h0.2l0.3-0.4h0.1c0.5,0,0.9-0.3,1.1-0.7c0-0.1,0.1-0.1,0.1-0.2c0.2-0.1,0.3-0.3,0.4-0.5
				l0.1-0.2l-0.3-0.8l-0.2-0.1c-0.2-0.1-0.3-0.1-0.5-0.1l-0.2-0.1c-0.1,0-0.3-0.1-0.4-0.1h-0.1c-0.2-0.2-0.5-0.3-0.8-0.3
				c-0.1,0-0.2,0-0.3,0h-0.2l-0.4,0.4l-0.4-0.1l-0.9,0.7v1.8l0.8,0.5l0.3,0.2h0.1c0.2,0.1,0.5,0.2,0.8,0.2
				C627.9,820,628,820,628.2,819.9z"/>
			<path class="st43" d="M629.3,876.4c0-0.1,0-0.1,0-0.2V876l-0.4-0.5l-0.1-0.1c-0.2-0.1-0.4-0.1-0.5-0.1c-0.5,0-0.9,0.2-1.2,0.5
				l0,0c-0.5,0-1,0.4-1.1,0.9c-0.1,0.5,0.2,0.9,0.6,1.1l0.2,0.2l0.3-0.1l0.2,0.1l0.4,0.3l0.5-0.3l0.1,0.2h0.2
				c0.2,0.2,0.4,0.3,0.7,0.3h0.1l0.5-0.2l0.1-0.1c0.4-0.3,0.5-0.8,0.3-1.2C629.9,876.8,629.6,876.5,629.3,876.4z"/>
			<path class="st43" d="M607.4,957.8L607.4,957.8l-0.5-0.4h-0.3l0,0c-0.2,0-0.4,0-0.6,0.2c-0.3-0.1-0.7-0.1-1-0.2
				c-0.4,0-0.7,0.1-1.1,0.2l-0.1,0.1l-0.3,0.6v0.2c0,0.7,0.2,1.3,0.6,1.8c0.1,0.1,0.2,0.3,0.2,0.5v0.2l0.5,0.5l0.2,0
				c0.1,0,0.3,0.1,0.4,0.1h0.1c0.3,0.3,0.7,0.6,1.1,0.6h0.3l0.8-0.9l-0.1-0.3c0-0.3,0-0.5,0.1-0.8
				C607.9,959.4,607.8,958.5,607.4,957.8z"/>
			<path class="st43" d="M605.9,866.8c0.2,0,0.4,0,0.6-0.2l0.1-0.1l0.3-0.4V866c0-0.1,0-0.2,0.1-0.3c0.2-0.5,0.2-1,0.1-1.6
				c-0.1-0.4-0.5-0.8-0.9-1l-0.1-0.3l-0.5,0.1c-0.1-0.1-0.3-0.2-0.4-0.3l-0.3-0.1l-0.3,0.2l0,0h-0.2c-0.5,0-0.9,0.4-1,0.9v0.2
				l0.1,0.2c-0.2,0.4-0.3,0.9-0.3,1.3l0.1,0.3l0.5,0.3c0,0.2,0.2,0.5,0.4,0.6c0.2,0.2,0.6,0.3,0.9,0.3c0.2,0,0.4-0.1,0.6-0.2
				C605.7,866.8,605.8,866.8,605.9,866.8L605.9,866.8z"/>
			<path class="st43" d="M651.9,842.4L651.9,842.4h0.4l0.3-0.4l0,0c0,0,0,0,0.1,0c0.4-0.2,0.6-0.6,0.5-1.1c-0.1-0.4-0.3-0.7-0.7-0.8
				l-0.3-0.1l-0.3,0.2h-0.3l-0.8,0.7v0.7C650.9,842,651.3,842.4,651.9,842.4z"/>
			<path class="st43" d="M651.7,819.7c0.3,0.1,0.6,0.2,0.8,0.2c0.7,0,1.3-0.3,1.8-0.7l0.1-0.1l0.2-0.3v-0.1c0.5-1.2-0.1-2.5-1.2-3
				c-0.1,0-0.2-0.1-0.3-0.1c-0.2-0.2-0.4-0.3-0.7-0.3l0,0h-0.5l-0.1,0.2c-0.2,0-0.4,0.1-0.6,0.2c-0.1,0.1-0.2,0.2-0.3,0.4l0,0
				c-0.2,0.1-0.3,0.3-0.4,0.5l-0.3,0.1l-0.1,0.3c-0.1,0.6,0,1.2,0.5,1.6C650.8,819.1,651.1,819.5,651.7,819.7L651.7,819.7z"/>
			<path class="st43" d="M645.4,922c-0.1-0.2-0.1-0.4,0-0.7l0.1-0.2l-0.1-0.7l-0.1-0.1c-0.7-0.6-1.6-0.9-2.5-0.9h-0.3l0,0l-0.2,0.3
				l-0.1-0.1l-0.5,0.4c-0.7,0.7-1,1.6-0.9,2.5c0,0.3,0.2,0.6,0.4,0.8l0,0l0.2,0.7h0.4v0.3h0.7v-0.1v0.1l0,0v0.1
				c0.2,0.1,0.4,0.2,0.7,0.2c0.3,0,0.6-0.1,0.8-0.3h0.1l0.5-0.4l0.2-0.2v-0.2l0.1-0.1l0.3-0.2l0.1-0.1l0.3-0.6v-0.2L645.4,922z"/>
			<path class="st43" d="M653.6,906.2c-0.1-0.3-0.3-0.5-0.6-0.7l0,0v-0.1l-0.3-0.7l-0.2-0.1c-0.2-0.1-0.5-0.2-0.8-0.2
				c-0.2,0-0.3,0-0.5,0h-0.2h-0.3l-0.7,0.7v0.1l0,0c-0.2,0.2-0.4,0.5-0.5,0.8c-0.1,0.3-0.1,0.6,0,0.9v0.1v0.2c0,0.3,0.2,0.5,0.5,0.7
				l0,0l0.5,0.2c0.1,0,0.1,0.1,0.2,0.1l0.4,0.2h0.2l0,0h0.1c0.2,0.1,0.5,0.1,0.7,0.2h0.4l0.5-0.5l0.2-0.2v-0.2l0.1-0.2
				c0.2-0.2,0.3-0.4,0.4-0.7l0-0.1L653.6,906.2L653.6,906.2z"/>
			<path class="st43" d="M645.8,914.6c-0.3-0.5-0.9-0.9-1.6-0.9c-0.3,0-0.7,0.1-1,0.2c-0.2-0.1-0.4-0.1-0.5-0.1H642l-0.4,0.5
				c-0.2,0.1-0.4,0.2-0.6,0.4c-0.2,0.2-0.3,0.4-0.3,0.7l0,0l-0.4,0.6l0.2,0.3c0,0.1,0.1,0.2,0,0.4c-0.1,0.7,0.3,1.3,0.9,1.6h0.1l0,0
				c0.2,0.1,0.4,0.2,0.6,0.2l0.2,0.2h0.2h0.3c0.5,0,0.9-0.2,1.2-0.6h0.5l0.1-0.1c0.3-0.2,0.5-0.5,0.5-0.8l0.3-0.1l0.1-0.2l0.2-0.1
				l0.1-0.1c0.4-0.4,0.5-1.1,0.1-1.6C645.9,915,645.9,914.7,645.8,914.6z"/>
			<path class="st43" d="M654.8,874.7c0-0.1-0.1-0.2-0.1-0.3l0-0.2l-0.7-0.6l0,0l0,0c0-0.1-0.1-0.3-0.1-0.4l-0.1-0.2l-0.5-0.4h-0.3
				c-0.7,0-1.3,0.4-1.5,1.1c-0.1,0.2-0.1,0.4,0,0.7c0,0.1,0,0.1,0,0.2l-0.3,0.4v0.8l0.7,0.7h0.9l0,0h0.1l0.4,0.2l1-0.5l0,0
				c0.3-0.1,0.6-0.5,0.6-0.8v-0.4L654.8,874.7z"/>
			<path class="st43" d="M584.4,842c0-0.5-0.3-0.9-0.7-1.1l-0.3-0.2l-1.1,0.8l0.1,0.3c0,0,0,0.1,0,0.1c-0.1,0.4,0,0.8,0.3,1.1
				c0.2,0.2,0.5,0.4,0.8,0.4c0.1,0,0.3,0,0.4,0l0.2-0.1l0.5-0.8l-0.1-0.2L584.4,842z"/>
			<path class="st43" d="M587.1,813.6c-0.5-0.5-1.2-0.8-1.9-0.8c-0.6,0-1.2,0.2-1.6,0.6l-0.3,0.3l0.4,0.9h-0.1c0,0,0-0.1,0-0.1
				c0,0.1,0,0.1,0,0.2c0,0.6,0.2,1.1,0.6,1.5l0.1,0.1l0.4,0.1h0.1c0.2,0,0.4,0,0.5,0.1c0.2,0,0.3,0,0.5,0c0.3,0,0.5,0,0.8-0.1h0.2
				l0.5-0.7v-0.2c0-0.3,0-0.6,0.1-0.9l0.1-0.2l-0.2-0.7L587.1,813.6z"/>
			<path class="st43" d="M580.8,813l-0.1-0.1c-0.1-0.1-0.3-0.2-0.4-0.2l-0.3-0.1l-0.7,0.5c-0.4,0.1-0.7,0.4-0.8,0.8l-0.2,0.1
				l-0.1,0.1c-0.2,0.4-0.2,0.8,0,1.2l0.1,0.2l0.6,0.4h0.2c0.3,0,0.5-0.1,0.8-0.2l0.6,0.1l0.2-0.1c0.3-0.3,0.6-0.7,0.7-1.1
				c0-0.1,0-0.1,0-0.2l0.2-0.3l-0.3-1L580.8,813z"/>
			<path class="st43" d="M571,876.7l0.2,0.1l0.7-0.1l0.1-0.1c0.1-0.1,0.2-0.2,0.3-0.3l0.2,0.1l0.9-1.1l-0.2-0.4c0-0.1,0-0.2,0-0.2
				c0-0.3-0.1-0.7-0.2-1c-0.1-0.3-0.4-0.4-0.6-0.5l-0.3-0.7h-0.4v-0.2l-0.7-0.7h-0.1l-0.2-0.1h-0.7c-0.2-0.1-0.4-0.2-0.6-0.3
				c-0.2-0.2-0.5-0.4-0.8-0.5h-0.1l-0.6,0.1l-0.1,0.1c-0.2,0.1-0.3,0.3-0.3,0.5l-0.4,0.3v0.3c0,0.2,0,0.5,0,0.7
				c-0.1,0.2-0.2,0.4-0.2,0.7c0,0.3,0.1,0.6,0.3,0.8c0.4,0.4,1,0.4,1.4,0.1l0,0c0,0.1,0.1,0.1,0.1,0.2l0,0.2l0.2,0.6l0.1,0.1
				c0.1,0.1,0.2,0.2,0.3,0.3l0.1,0.1l0,0.1c0.4,0.4,0.9,0.7,1.4,0.8C570.7,876.6,570.9,876.6,571,876.7z"/>
			<path class="st43" d="M573.7,905.9l0.9-0.4l0,0c0.2,0,0.4-0.2,0.5-0.3v0l0.8-0.3v-0.3c0.1-0.5,0-1.1-0.4-1.5
				c-0.4-0.5-1.1-0.7-1.7-0.7c-0.1,0-0.3,0-0.4,0l-0.6-0.4l-0.3,0.1c0,0-0.1,0-0.2,0h-0.4c-0.3,0-0.5,0-0.8,0.2
				c-0.2,0.1-0.4,0.3-0.5,0.5c-0.3,0.1-0.5,0.3-0.6,0.6l-0.1,0.2l0.2,0.4c-0.1,0.1-0.2,0.3-0.3,0.5l-0.1,0.3l0.5,0.7l0.1,0.2
				c0,0.1-0.1,0.2-0.1,0.3v0.2l0.5,0.8l0.2,0.1c0.1,0,0.3,0,0.4,0.1c0.1,0.1,0.2,0.1,0.3,0.2l0.3,0.1l0.2-0.1l0.3,0.2l1.1-0.7v-0.3
				C573.6,906.2,573.6,906.1,573.7,905.9z"/>
			<path class="st43" d="M573.9,951.9c-0.3,0-0.5,0.1-0.8,0.2l-0.2,0.1l-0.3,0.8l0.1,0.3c0.1,0.7,0.7,1.3,1.4,1.4h0.2l0.7-0.4
				l0.1-0.2c0.3-0.5,0.3-1.1,0-1.6C574.9,952.2,574.4,951.9,573.9,951.9z"/>
			<path class="st43" d="M588.2,861.8l0.4-0.1h0.1c0.5-0.3,0.7-0.9,0.6-1.4c-0.1-0.6-0.6-1-1.2-1.1c-0.4,0-0.8,0.2-1,0.6l-0.2,0.3
				l0.3,0.7l0,0l0,0C587.2,861.3,587.7,861.7,588.2,861.8L588.2,861.8z"/>
			<path class="st43" d="M598.6,842.8l-0.1-0.2c0.1-0.3,0.1-0.6,0-0.9l-0.1-0.1l-0.4-0.3h-0.1c-0.2-0.1-0.5-0.2-0.7-0.2h-0.3l-0.3,0
				l-0.3,0.5h-0.2c-0.1,0-0.3,0-0.4,0.1l-0.2,0.1l-0.5,0.7v0.2c0,0.6,0.3,1.1,0.8,1.4l0.3,0.2l0.7-0.5h0.1l0,0
				c0.1,0.1,0.3,0.1,0.4,0.1c0.4,0,0.8-0.3,1-0.7L598.6,842.8z"/>
			<path class="st43" d="M601.9,870.5c-0.2-0.4-0.6-0.6-1-0.6c-0.4,0-0.7,0.2-0.9,0.4l-0.2,0.2l0.1,0.3c-0.4,0.3-0.8,0.4-1.3,0.5
				l-0.3,0.1l-0.5,0.9l0.1,0.2c0,0.1,0,0.1,0,0.2c-0.1,0.3-0.1,0.6,0,0.8c0,0.3,0.1,0.6,0.1,0.8l0.1,0.2l0.4,0.4l0.1,0.1h0.1
				c0.2,0.1,0.3,0.2,0.5,0.3l0.2,0.1l0.3-0.2c0.2,0,0.4,0,0.5,0h0.2l0.2-0.3c0.1,0,0.1,0,0.2,0l0,0h0.4l0.6-0.7V874
				c0-0.2,0-0.4,0.1-0.6c0.1-0.4,0.1-0.7,0-1.1c0.2-0.1,0.4-0.4,0.5-0.6l0.2-0.3L601.9,870.5L601.9,870.5z"/>
			<path class="st43" d="M605.8,769l-0.1-0.4c0.1-0.3,0.1-0.7-0.1-1c-0.2-0.3-0.5-0.5-0.9-0.5h-0.2l-0.5,0.3l0,0
				c-0.4,0-0.7,0.1-1,0.4l-0.2,0.2l0.1,1l0.2,0.2c0.4,0.3,0.9,0.6,1.4,0.6c0.2,0,0.3,0,0.5-0.1l0.2,0.5l0.3-0.7
				c0.1-0.1,0.2-0.2,0.3-0.3L605.8,769z"/>
			<path class="st43" d="M591.7,873.7h-0.3l-0.7,0.6v0.2c-0.1,0.5,0,1,0.3,1.3c0.2,0.3,0.6,0.4,0.9,0.4h0.2h0.2l0.6-0.7v-0.2
				C593,873.9,592.1,873.7,591.7,873.7z"/>
			<path class="st43" d="M587.9,893.7c-0.4,0-0.9,0.2-1.1,0.7l-0.1,0.3l0.4,0.9h0c0.2,0.3,0.5,0.5,0.9,0.6h0.2l0.8-0.5l0.1-0.2
				c0.1-0.4,0-0.9-0.3-1.3C588.6,893.9,588.3,893.7,587.9,893.7z"/>
		</g>
		<g class="st42">
			
				<rect x="507.1" y="719.4" transform="matrix(0.3655 -0.9308 0.9308 0.3655 -375.3823 1089.3735)" class="st12" width="208.7" height="201.3"/>
			<path class="st44" d="M524.4,782.1c0.2-0.6-0.1-1.2-0.6-1.4l0,0l-0.4-0.1l-0.8,0.6v0.2c-0.1,0.4-0.3,1.5,0.6,1.8l0,0
				c0.4,0.2,0.8,0.1,1.1-0.2l0.2-0.2L524.4,782.1L524.4,782.1z"/>
			<path class="st44" d="M673.7,732.7l-0.3-0.4l-0.1-0.1H673c-0.5-0.3-1.2-0.1-1.5,0.4l-0.1,0.2l0,0c-0.1,0.1-0.2,0.2-0.3,0.4
				l-0.1,0.2l0.4,0.9l1.1,0.4l0.8-0.3l0.1-0.2c0.3-0.4,0.3-0.9,0.2-1.4L673.7,732.7z"/>
			<path class="st44" d="M667.2,743.6l-0.9-0.7h-0.1c-0.1,0-0.1-0.1-0.2-0.1l-0.3-0.2l-0.2-0.1l-0.8,0.1l-0.1,0.1
				c-0.3,0.3-0.4,0.6-0.3,1v0.1l0.4,0.7l0.2,0.1l0.3,0.1c0.4,0.2,0.8,0.2,1.2,0c0.3-0.2,0.6-0.5,0.7-0.9L667.2,743.6z"/>
			<path class="st44" d="M677.5,776.3l0.3,0.1l0.2,0.1l0.8-0.3l0.1-0.2c0.3-0.6,0.1-1.3-0.5-1.7c-0.1,0-0.1-0.1-0.2-0.1l0,0L678,774
				l-1.2,0.1l-0.2,0.3c-0.2,0.3-0.2,0.7-0.1,1.1C676.8,775.8,677.1,776.1,677.5,776.3z"/>
			<path class="st44" d="M670.5,795.9l0.4-0.9l-0.3-0.7l-0.1-0.2h-0.1c0-0.1,0-0.1,0-0.2l0,0v-0.2l0,0c-0.2-0.4-0.6-0.7-1-0.9
				l-0.6-0.2l-0.9,0.4l0,0h-0.2l-0.7,0.3l-0.1,0.2c-0.3,0.4-0.3,0.9-0.2,1.3l0,0l-0.2,0.2l0.2,1l0.3,0.2l0.1,0.1
				c0.1,0.1,0.2,0.2,0.4,0.3c0.4,0.2,0.9,0.1,1.2-0.2v0.1l1.3-0.2v-0.1L670.5,795.9z"/>
			<path class="st44" d="M680.4,766.9L680.4,766.9l0.2,0.2l0,0l0.2,0.1c0.2,0.1,0.4,0.1,0.6,0.1c0.1,0.1,0.2,0.1,0.3,0.2
				c0.5,0.2,1,0,1.2-0.5l0.1-0.2l-0.1-0.7l-0.5,0.1l0.4-0.3l-0.2-0.4l-0.1-0.1c0-0.5-0.3-0.8-0.8-1c-0.1,0-0.2-0.1-0.3-0.1h-0.1
				h-0.3h-0.1c-0.3,0.1-0.6,0.3-0.7,0.6c0,0.1-0.1,0.2-0.1,0.3c-0.1,0.1-0.2,0.2-0.2,0.3C680,766.2,680.1,766.6,680.4,766.9z"/>
			<path class="st44" d="M644.1,800.1L644.1,800.1l-0.1-1l-0.4-0.3c-0.4-0.3-0.8-0.6-1.3-0.8c-0.2-0.1-0.4-0.1-0.6-0.2l-0.3-0.1
				l-0.3,0.3c-0.3,0-0.6,0.1-0.9,0.2c-0.5,0.4-0.7,1.1-0.6,1.7c-0.1,0.6,0.1,1.2,0.5,1.7l0.2,0.2l0.7,0.1h0.1
				c0.2,0.1,0.4,0.2,0.5,0.3c0.1,0,0.2,0.1,0.3,0.1h0.1h0.3c0.3-0.1,0.5-0.2,0.7-0.4c0.3-0.1,0.6-0.3,0.8-0.6l0,0l0.1-0.1l0.2-0.1
				l0.2-0.7L644.1,800.1z"/>
			<path class="st44" d="M601,836.7l-0.1,0.3l0.4,0.9l0.3,0.1c0,0,0,0.1,0,0.1l0.2,0.3l1.3-0.1l0.4-1.1l-0.3-0.9l-0.2-0.1l-0.3-0.1
				C602,835.9,601.3,836.1,601,836.7z"/>
			<path class="st44" d="M594.5,858.5l-0.9,0.3l-0.1,0.2c-0.3,0.6-0.3,1.2,0.1,1.8l0.2,0.3l0.9-0.1h0.3l0.1-0.3c0.6-1.3,0-1.8-0.5-2
				L594.5,858.5z"/>
			<path class="st44" d="M609.2,843.4h0.5l0.1,0c0.5-0.2,0.9-0.7,0.9-1.3c0-0.5-0.3-0.9-0.7-1.1l-0.3-0.1l-1,0.6l0,0.2v0.1
				c-0.2,0.3-0.3,0.7-0.2,1.1C608.6,843,608.8,843.2,609.2,843.4L609.2,843.4z"/>
			<path class="st44" d="M638.3,764c-0.4,0.6-0.2,1.4,0.4,1.8c0,0,0.1,0,0.1,0.1l0.2,0.1h0.1l0.3,0.3l0.2,0.2l0,0
				c0,0.1,0.1,0.1,0.2,0.1l0.1,0.1l0.6,0.1h0.1l0.3-0.1c0.2,0,0.4-0.1,0.6-0.1h0.1l0.6-0.2l0.1-0.1l0.3-0.2c0.4-0.1,0.7-0.5,0.7-1
				v-0.1l0,0c0.3-0.6,0.1-1.2-0.3-1.7l-0.2-0.2h-0.2c-0.1-0.2-0.3-0.3-0.4-0.4l-0.1-0.1v-0.1l-0.6-0.4l-0.2-0.2l-0.3,0.1
				c-0.2,0-0.3,0-0.5-0.1l0,0h-0.1l-0.3-0.1l-0.5-0.1l-0.1,0.2c-0.1,0-0.2,0-0.4,0.1c-0.2,0.1-0.4,0.3-0.5,0.5
				c-0.3,0.1-0.5,0.3-0.6,0.6l-0.1,0.2L638.3,764L638.3,764z"/>
			<path class="st44" d="M624.6,802.9l0.1-0.2l-0.1-0.8l-0.1-0.1c0-0.2,0-0.4-0.1-0.5v-0.1l-0.4-0.4H624c-0.4-0.1-0.8,0-1.1,0.2
				c-0.7,0.5-0.9,1.4-0.4,2.1c0,0,0,0,0,0l0.2,0.4l0.5-0.1l0.1,0.1C623.8,803.7,624.4,803.4,624.6,802.9z"/>
			<path class="st44" d="M629.2,785l0.8-0.1l0.2-0.2c0,0,0.1-0.1,0.1-0.1c0.1-0.1,0.3-0.2,0.4-0.3l0.2-0.2l-0.1-1l-0.5-0.3l0,0
				c-0.7-0.2-1.4,0.1-1.7,0.7c-0.3,0.5-0.1,1.2,0.4,1.4L629.2,785z"/>
			<path class="st44" d="M691.9,789.9l-0.1,0.2l0.1,0.6l0.1,0.1c0.4,0.5,1.1,0.6,1.6,0.3c0.2-0.1,0.4-0.3,0.4-0.6
				c0-0.1,0.1-0.2,0.1-0.3l0.1-0.2c0.2-0.2,0.3-0.5,0.3-0.9c-0.1-0.3-0.2-0.6-0.5-0.8l-0.3-0.2l-0.5,0.2l-0.1-0.1l-0.2-0.1l-0.8,0.1
				l-0.1,0.1c-0.3,0.3-0.4,0.7-0.2,1.1C691.8,789.7,691.9,789.8,691.9,789.9z"/>
			<path class="st44" d="M505.2,821l-0.2-0.3l-1.3,0.2l-0.3,0.7v0.3h-0.1c-0.4,0-0.7,0.2-0.9,0.5l-0.1,0.2l0.2,0.8l0,0
				c0.1,0.2,0.2,0.4,0.4,0.6l0.1,0.1l0.7,0.1l0.1-0.1c0.4-0.2,0.6-0.5,0.7-0.8c0-0.1,0-0.3,0-0.4c0.4,0,0.8-0.2,1-0.5l0.2-0.3
				l-0.3-1.1L505.2,821z"/>
			<path class="st44" d="M585.3,759.3v0.1l0.4,0.5l0.7,0.3l0.4-0.3c0.2,0,0.5-0.1,0.7-0.2c0.3-0.1,0.6-0.2,0.7-0.5l0.2-0.3l-0.3-0.6
				l0,0c0,0,0,0.1,0,0.1c0-0.1,0-0.1,0-0.2c0.2-0.9-0.2-1.3-0.6-1.5c-0.3-0.1-0.7-0.1-1,0.1l-0.3,0.2v0.1l-0.2,0.1v0.1l-0.4,0.2
				l-0.3,0.8l0,0C585.2,758.7,585.2,759,585.3,759.3z"/>
			<path class="st44" d="M585.6,720.3v-0.2c0.2-0.4,0.2-0.9,0-1.3l-0.1-0.2l-0.4-0.1l0,0l-0.6-0.1l0,0h-0.1l0,0h-0.2v0.1l-0.1-0.2
				c-0.3,0-0.6,0.1-0.8,0.4l0,0l0,0l0,0c-0.4,0-0.8,0.1-1,0.5l-0.1,0.2v0.2c-0.2,0.1-0.3,0.3-0.4,0.5h-0.1l-0.4,0.4l-0.4,1l0.4,0.9
				l0.3,0.1c0.1,0,0.1,0.1,0.2,0.1c0.1,0.1,0.3,0.2,0.4,0.2c0.3,0.1,0.5,0.1,0.8,0.1h0.1l0.5-0.3l0.1-0.1c0.1-0.1,0.2-0.3,0.2-0.5
				c0.3,0.1,0.6,0,0.9-0.3c0.3-0.3,0.4-0.7,0.3-1.1l0.3-0.1L585.6,720.3z"/>
			<path class="st44" d="M605.1,734.4h0.2H605.1l0,0.6l0.2,0.1c0.1,0.1,0.3,0.2,0.4,0.2c0.2,0.1,0.4,0.1,0.7,0.1h0.1h0.2h0.3
				c0.2,0,0.4,0,0.6,0l0.2,0l0.1-0.1l0.8-0.2l0.1-0.1l0,0c0.4-0.2,0.6-0.6,0.7-1c0-0.4-0.1-0.7-0.4-0.9l-0.2-0.2l0,0v-0.2l-0.3-0.2
				c-0.1,0-0.1-0.1-0.2-0.1c-0.1-0.3-0.3-0.5-0.6-0.7c-0.3-0.1-0.6-0.1-0.9,0.1l-0.4-0.2l-0.3,0.7l0,0c-0.2,0.2-0.4,0.4-0.4,0.7l0,0
				l-0.4,0.2L605.1,734.4z"/>
			<path class="st44" d="M533.2,814.9c-0.2,0.3-0.3,0.7-0.2,1.1l0.1,0.3l0.9,0.3l0.3,0.1l0.2-0.1c0.3,0,0.7-0.1,0.9-0.3h0h0.2
				l0.1-0.6l0.2-0.1l0.1-1.4l-0.1-0.1c-0.1-0.5-0.3-0.9-0.8-1.1l-0.2-0.1l-0.8,0.2c0,0-0.2,0.2-0.2,0.2l-0.2,0.1l-0.3,0.6l-0.1,0.2
				l0.1,0.3C533.3,814.7,533.2,814.8,533.2,814.9z"/>
			<path class="st44" d="M563.2,750l0.2-0.2l-0.5-0.9l-0.2-0.4h-0.2c-0.2-0.3-0.5-0.6-0.9-0.7c-0.1-0.1-0.3-0.1-0.4-0.1h-0.1h-0.3
				h-0.1c-0.5-0.2-1,0-1.2,0.5l-0.3,0.1l-0.1,0.3c0,0.4,0,0.8,0,1.2c0,0.1,0,0.3,0,0.4l-0.1,0.4l0.8,0.6l0.1-0.2l-0.2,0.3l0.1,0
				c0.1,0.1,0.2,0.1,0.3,0.2c-0.3-0.1-0.6-0.1-0.9,0h-0.1l-0.8,0.3l-0.1,0.2c-0.4,0.6-0.3,1.4,0.3,1.8c0,0,0.1,0.1,0.1,0.1l0.3,0.2
				l0.3-0.2l0.1,0h0.1h0.6l0.1-0.1c0.3-0.2,0.5-0.4,0.5-0.7l0,0c0.2-0.2,0.3-0.5,0.2-0.8v-0.2l-0.4-0.5l-0.1-0.1l0,0l0.3,0.1
				c0.5-0.1,1-0.1,1.5-0.1h0.1l0.2-0.1h0C563,751.1,563.3,750.6,563.2,750L563.2,750z"/>
			<path class="st44" d="M528.5,846.2l-0.1-0.2l-0.7-0.3l-0.7,0.2l0,0c-0.2,0.1-0.3,0.2-0.5,0.4l-0.2,0.2l0.2,0.8l0.1,0.1l0.3,0.7
				l0.3,0.1c0.5,0.2,1,0.1,1.4-0.2h0.4l0.1-1.8L528.5,846.2z"/>
			<path class="st44" d="M682.1,858.4l-0.4-0.7l-0.3-0.1c-0.4-0.2-0.8-0.2-1.2-0.2c-0.1,0-0.2,0-0.3,0l-0.2-0.1l-0.9,0.4l-0.1,0.3
				c-0.3,1,0,2.1,0.8,2.7l0.3,0.3l0.6-0.3h0.3l0.1-0.1c0.2-0.2,0.4-0.4,0.6-0.6l0,0l0.1-0.1c0.4-0.3,0.6-0.7,0.6-1.2L682.1,858.4z"
				/>
			<path class="st44" d="M656,888.8c0.2-0.2,0.3-0.5,0.3-0.8v-0.1l-0.3-0.5l-0.4-0.2l0,0c-0.7-0.2-1.4,0.1-1.7,0.7c0,0,0,0.1,0,0.1
				l-0.2,0.2l-0.1,0.1c-0.1,0.2-0.2,0.5-0.2,0.8c-0.2,0.1-0.4,0.3-0.6,0.5l-0.1,0.2l0.3,1l0.3,0.2c0.7,0.2,1.5-0.1,1.8-0.8v-0.1
				c0.4-0.1,0.7-0.4,0.8-0.8C656.1,889.1,656,888.9,656,888.8z"/>
			<path class="st44" d="M695,819.4c0.1,0,0.3,0,0.4,0.1c0.2,0,0.5,0.1,0.7,0.1l0.4,0.1l0.7-0.4l0.1-0.2c0.2-0.3,0.2-0.7,0.1-1
				c-0.1-0.3-0.3-0.5-0.6-0.6c-0.1,0-0.2-0.1-0.3-0.1l-0.1-0.1c-0.1-0.4-0.4-0.7-0.8-0.9l-0.2-0.1l-0.4,0.2l-0.5-0.2l-0.8,0.3
				l-0.1,0.2c-0.3,0.5-0.4,1.2-0.1,1.8v0.2v0.4l1.2,0.5L695,819.4z"/>
			<path class="st44" d="M657.7,879.7l0.3,0.2l1.1-0.5l0.1-0.3c0.3-0.6,0.1-1.2-0.5-1.5c0,0-0.1,0-0.1,0c-0.1,0-0.2-0.1-0.3-0.1
				h-0.2H658h-0.1c-0.1,0-0.2-0.1-0.3-0.1l-0.2,0l-0.8,0.4l-0.3,0.7l0.4,0.9L657.7,879.7L657.7,879.7z"/>
			<path class="st44" d="M670.7,788c-0.1,0.3-0.1,0.6,0.1,0.9l-0.1,0.5l0.1,0.2c0.3,0.5,0.8,0.9,1.3,1.1c0.1,0,0.2,0.1,0.3,0.2
				l0.3,0.3l0.6-0.3c0.2,0.1,0.5,0.1,0.8,0.1c0.2,0,0.3-0.1,0.4-0.2c0.1,0,0.3,0,0.4-0.1h0.1l0.2-0.2v-0.1c0.2-0.4,0.4-0.8,0.4-1.2
				c0-0.1,0-0.2,0.1-0.3l0.1-0.3l-0.5-0.8l-0.2-0.1c-0.1,0-0.2-0.1-0.3-0.2c-0.2-0.2-0.4-0.4-0.7-0.5l-0.3-0.1c-0.1,0-0.2,0-0.4,0
				l-0.3-0.3H673c-0.4,0-0.8,0.2-1,0.5l-0.4,0.1l-0.1,0.1c-0.1,0.1-0.2,0.2-0.2,0.3C671,787.6,670.8,787.7,670.7,788z"/>
			<path class="st44" d="M648.1,892.4l-0.1-0.1c-0.1-0.1-0.2-0.3-0.3-0.4l-0.2-0.2l-1.1,0.2l-0.1,0.3c-0.1,0.3-0.1,0.7,0,1
				c0.1,0.3,0.4,0.5,0.7,0.7c0.3,0.2,0.8,0.2,1.1,0l0.3-0.2l0.1-1.2L648.1,892.4z"/>
			<path class="st44" d="M680.9,918l-0.1-0.2c-0.1-0.3-0.4-0.5-0.6-0.6c-0.1,0-0.2-0.1-0.2-0.1c-0.1-0.3-0.4-0.6-0.8-0.7l-0.4-0.1
				l-0.6,0.3h-0.1c-0.4,0-0.8,0.3-1,0.7c-0.1,0.2-0.1,0.4-0.1,0.5c-0.1,0.2-0.1,0.4,0,0.6c0.1,0.4,0.3,0.7,0.7,0.8l0.3,0.1l0.2-0.1
				h0.1h0.1l0,0c0.1,0.3,0.3,0.5,0.6,0.7c0.4,0.2,0.9,0,1.2-0.4l0,0l0.1-0.2l0,0c0-0.1,0.1-0.2,0.1-0.2c0.1-0.1,0.2-0.2,0.4-0.3
				l0.1-0.1L680.9,918z"/>
			<path class="st44" d="M619.5,931.4l-0.2-0.1c0-0.1,0-0.2,0-0.2c0.2-0.1,0.4-0.2,0.6-0.4l0,0l0.2-0.1v-1.2l-0.3-0.2
				c-0.1-0.1-0.2-0.1-0.3-0.2c-0.3-0.1-0.6-0.1-0.8,0c-0.1,0.1-0.3,0.2-0.4,0.3c-0.2,0.1-0.4,0.2-0.5,0.4c-0.1,0.2-0.2,0.5-0.1,0.8
				l-0.4,0.2l-0.1,0.2c-0.3,0.6-0.3,1.3,0.1,1.8l0.1,0.2c-0.1,0.2-0.2,0.3-0.3,0.5v0.2l0.2,0.4h0l0.2,0.5l0.6,0.2
				c0.1,0.1,0.1,0.1,0.2,0.2l0.2,0.2l1.1-0.3l0.1-0.3l0.1-0.2l0.8-0.1l0-0.5C621,932.8,620.4,931.8,619.5,931.4z"/>
			<path class="st44" d="M556.3,786.4l-0.4-0.7h-0.1c-0.1-0.4-0.4-0.7-0.8-0.9c-0.3-0.1-0.7-0.1-0.9,0.1H554h-0.1
				c-0.2,0.1-0.4,0.3-0.6,0.5l-0.2,0.2l-0.1,0.1l-0.4,1l0.2,0.3c0.1,0.2,0.3,0.4,0.6,0.5c0.2,0.4,0.6,0.6,1,0.8l0.1,0.1l0.2,0.2
				l1.1-0.2l0.1-0.3c0.2-0.4,0.3-0.9,0.4-1.3L556.3,786.4z"/>
			<path class="st44" d="M512.8,873.5l-0.1-0.2l-0.6-0.3l0,0l-0.1-0.1c0-0.2,0-0.3-0.1-0.5l-0.1-0.3l-1.2-0.2l-0.2,0.2
				c-0.3,0.3-0.5,0.7-0.5,1.1c-0.1,0-0.2,0.1-0.3,0.1l-0.5,0.4v0.1c0,0.1-0.1,0.1-0.1,0.2c-0.1,0.2-0.1,0.4,0,0.6
				c0,0.2,0,0.4,0.1,0.6l0,0.1l0.4,0.4h0.1l0.3,0.1l0.1,0.2l0,0l0,0c0.1,0.2,0.3,0.4,0.5,0.5c0.3,0.1,0.6,0.1,0.9-0.1
				c0.1,0,0.2,0,0.4,0h0.2l0.7-0.5l0.1-0.2C513.1,875.1,513.1,874.2,512.8,873.5z"/>
			<path class="st44" d="M548.6,861.2l-0.3-0.1l-0.7,0.3l-0.2,0.1l-0.1,0.3c0,0,0,0,0,0.1c0,0.1-0.1,0.2-0.1,0.3H547l-0.2,0.2
				c-0.3,0.3-0.4,0.7-0.3,1.1c0.1,0.4,0.4,0.8,0.7,0.9c0.4,0.1,0.8,0.1,1-0.2l0,0c0.4,0.1,0.9,0.1,1.2-0.2l0.1-0.1l0.3-0.6l0-0.3
				C549.8,862.2,549.3,861.5,548.6,861.2z"/>
			<path class="st44" d="M545.7,872L545.7,872v-0.4v-0.1c0-0.2-0.1-0.4-0.3-0.5c0-0.2,0-0.3,0-0.5v-0.2l-0.4-0.5l-0.2-0.1
				c-0.3-0.1-0.6-0.1-0.9,0.1l-0.1,0l-0.7-0.3l-0.2,0.1l-0.3-0.1l-0.2,0.1c-0.5-0.1-0.9,0.2-1.1,0.7l-0.1,0.2l0.1,0.5
				c0,0,0,0.1,0,0.1c-0.4,0.6-0.3,1.4,0.2,1.9l0,0h0.1c0,0.2,0.1,0.5,0.2,0.7l0.2,0.3l1.1,0.1l0.2-0.2l0.8,0.3l0.3-0.1
				c0.2-0.1,0.3-0.2,0.4-0.3l0.5-0.2l0.2-0.7C545.5,872.6,545.5,872.3,545.7,872z"/>
			<path class="st44" d="M511.6,806.6l-0.3-0.1c-0.6-0.3-1.4-0.1-1.7,0.5c0,0,0,0,0,0l-0.1,0.3l0.6,1h0.3h0.1c0.4,0.1,0.9,0,1.3-0.2
				l0.3-0.2l-0.1-1.2L511.6,806.6z"/>
			<path class="st44" d="M541.7,756.9c0-0.5-0.4-1-0.9-1.2l-0.4-0.1l-0.8,0.5l-0.1,0.2c-0.1,0.3-0.2,0.5-0.3,0.7
				c-0.2,0.4-0.3,0.7-0.3,1.1v0.2l0.4,0.6l0.2,0.1c0.7,0.3,1.3,0,1.8-0.9l0.1-0.2l0.2-0.1V756.9L541.7,756.9z"/>
			<path class="st44" d="M600.2,878.9c0-0.1,0-0.2,0-0.3c0,0,0.1-0.1,0.1-0.1l0.1-0.1l0.1-0.4V878c0-0.2-0.1-0.4-0.1-0.5v-0.1v-0.2
				l-0.5-0.8h-0.3c-0.1,0-0.2,0-0.3-0.1c0,0-0.1,0-0.2-0.2s-0.2-0.2-0.3-0.4l0,0l0,0c-0.1-0.1-0.2-0.1-0.3-0.2
				c-0.3-0.1-0.6-0.1-0.9,0c-0.1-0.1-0.2-0.1-0.2-0.1l-0.2-0.1l-0.7,0.2l-0.1,0.1c-0.2,0.2-0.3,0.5-0.2,0.8c0,0.1-0.1,0.4-0.1,0.4
				c-0.2,0.5-0.3,1-0.5,1.8v0.2l0.2,0.6l0.1,0.1c0.1,0.1,0.2,0.2,0.3,0.2v0.1l0.6,0.4h0.2c0.2,0,0.3,0,0.5,0.1h0
				c1,0.4,2.1,0,2.7-0.8v-0.1l0.1-0.4L600.2,878.9z"/>
			<path class="st44" d="M646.4,778.1h0.2l0.4-0.2h0.1c0.4,0.1,0.9,0,1.3-0.3l0.1-0.2c0.2-0.1,0.4-0.2,0.5-0.4l0.2-0.2V776l-0.2-0.2
				c-0.1-0.1-0.3-0.2-0.4-0.3l-0.2-0.1c-0.1-0.1-0.2-0.2-0.4-0.2H648c-0.1-0.2-0.4-0.4-0.6-0.5l-0.2-0.1h-0.2l-0.5,0.3l-0.3-0.2
				l-1,0.3l-0.7,1.7l0.6,0.7l0.2,0.3h0.1c0.2,0.2,0.4,0.4,0.7,0.5C646.1,778.1,646.3,778.1,646.4,778.1z"/>
			<path class="st44" d="M628.1,831.6c0-0.1,0-0.1,0-0.2v-0.2l-0.2-0.6l0-0.1c-0.1-0.1-0.3-0.2-0.5-0.3c-0.4-0.2-0.9-0.2-1.3,0H626
				c-0.5-0.1-1.1,0.1-1.4,0.5c-0.2,0.4-0.2,0.9,0.2,1.3l0.2,0.2h0.3l0.1,0.2l0.3,0.4l0.5-0.1l0.1,0.2h0.2c0.1,0.2,0.3,0.4,0.5,0.5
				h0.1h0.5h0.1c0.5-0.2,0.8-0.6,0.8-1C628.5,832.1,628.3,831.8,628.1,831.6z"/>
			<path class="st44" d="M579.6,900.6v-0.1l-0.3-0.4l-0.2-0.1l0,0c-0.2-0.1-0.4-0.1-0.6-0.1c-0.3-0.2-0.6-0.4-0.9-0.5
				c-0.3-0.2-0.7-0.2-1.1-0.2h-0.2l-0.5,0.4v0.2c-0.2,0.6-0.2,1.3-0.1,1.9c0,0.2,0,0.4,0,0.5v0.2l0.3,0.7l0.1,0.1
				c0.1,0.1,0.2,0.2,0.4,0.2h0.1c0.1,0.4,0.4,0.7,0.8,0.9l0.3,0.1l1-0.6v-0.3c0.1-0.3,0.2-0.5,0.4-0.7
				C579.5,902.1,579.8,901.3,579.6,900.6z"/>
			<path class="st44" d="M609.4,814.6c0.2,0.1,0.4,0.1,0.6,0.1h0.1l0.4-0.3l0.1-0.1c0.1-0.1,0.1-0.2,0.2-0.3
				c0.3-0.4,0.5-0.9,0.6-1.4c0-0.5-0.2-0.9-0.5-1.2V811l-0.5-0.1c-0.1-0.1-0.2-0.3-0.3-0.4l-0.2-0.3l-0.4,0.1l0,0h-0.2
				c-0.5-0.1-1,0.1-1.3,0.5L608,811l0.1,0.2c-0.4,0.3-0.6,0.7-0.7,1.2v0.3l0.3,0.4c0,0.2,0,0.5,0.2,0.7c0.2,0.3,0.4,0.5,0.7,0.6
				c0.2,0.1,0.4,0.1,0.6,0.1C609.2,814.5,609.3,814.6,609.4,814.6L609.4,814.6z"/>
			<path class="st44" d="M660.9,807.4L660.9,807.4l0.4,0.1l0.4-0.3l0,0h0.1c0.4-0.1,0.8-0.4,0.9-0.8c0.1-0.4-0.1-0.8-0.4-1l-0.2-0.2
				l-0.4,0.1l-0.3-0.2l-0.9,0.4l-0.2,0.6l0,0C660.1,806.6,660.4,807.2,660.9,807.4C660.9,807.4,660.9,807.4,660.9,807.4z"/>
			<path class="st44" d="M668.6,786c0.2,0.2,0.5,0.4,0.7,0.5c0.6,0.2,1.3,0.2,1.9,0h0.1l0.3-0.2l0.1-0.1c0.9-0.9,0.8-2.4-0.1-3.2
				c-0.1-0.1-0.1-0.1-0.2-0.2c-0.1-0.3-0.3-0.4-0.6-0.5l0,0l-0.5-0.1l-0.2,0.2c-0.2,0-0.4,0-0.6,0c-0.2,0-0.3,0.1-0.4,0.2l0,0
				c-0.2,0-0.4,0.1-0.6,0.3h-0.3l-0.2,0.3c-0.3,0.5-0.4,1.1-0.1,1.7C667.9,785.2,668.1,785.7,668.6,786L668.6,786z"/>
			<path class="st44" d="M627.6,879.9c0.1-0.4,0.1-0.5,0.2-0.6l0.1-0.1l0.1-0.7l-0.1-0.2c-0.4-0.8-1.1-1.4-2-1.7l-0.3-0.1l0,0
				l-0.3,0.2v-0.2l-0.6,0.3c-0.8,0.4-1.5,1.1-1.8,2c-0.1,0.3,0,0.6,0.1,0.9l0,0v0.7l0.3,0.1l-0.1,0.3l0.7,0.3l0,0v0.1l0,0l-0.1,0.1
				c0.2,0.2,0.3,0.3,0.6,0.4c0.3,0.1,0.6,0.1,0.8,0h0.1l0.6-0.3l0.2-0.1l0.1-0.2h0.2l0.3-0.1l0.2,0l0.4-0.5v-0.2
				C627.5,880.1,627.6,879.9,627.6,879.9z"/>
			<path class="st44" d="M640.7,867.9c0-0.3-0.1-0.6-0.3-0.8l0,0l0.1-0.1l-0.1-0.8l-0.1-0.2c-0.2-0.2-0.4-0.4-0.7-0.5
				c-0.1-0.1-0.3-0.1-0.5-0.1H639l-0.3-0.1l-0.9,0.4v0.1h-0.1c-0.3,0.1-0.6,0.3-0.8,0.6c-0.2,0.3-0.3,0.6-0.3,0.9v0v0.2
				c-0.1,0.3,0,0.6,0.2,0.8l0,0l0.4,0.3c0,0.1,0.1,0.1,0.2,0.1l0.3,0.3h0.2h0c0,0,0.1,0.1,0.1,0.1c0.2,0.2,0.4,0.3,0.6,0.4l0,0
				l0.3,0.1l0.6-0.3l0.2-0.1l0.1-0.2l0.2-0.1c0.2-0.1,0.4-0.3,0.6-0.5l0.1-0.1l0.2-0.5L640.7,867.9z"/>
			<path class="st44" d="M630.5,873.1c-0.1-0.6-0.6-1.1-1.2-1.3c-0.3-0.1-0.7-0.2-1-0.2c-0.1-0.1-0.3-0.2-0.5-0.3l-0.6-0.2l-0.5,0.3
				c-0.2,0-0.5,0-0.7,0.1c-0.2,0.1-0.4,0.3-0.6,0.6l0,0l-0.6,0.4l0.1,0.4c0,0.1,0,0.2-0.1,0.4c-0.3,0.6-0.2,1.4,0.3,1.8h0.1l0,0
				c0.1,0.2,0.3,0.3,0.5,0.4l0.1,0.2l0.2,0.1l0.3,0.1c0.5,0.2,1,0.1,1.4-0.1l0.5,0.1l0.2,0c0.3-0.1,0.6-0.3,0.8-0.5h0.3l0.1-0.1h0.2
				h0.1c0.5-0.2,0.8-0.8,0.7-1.4C630.5,873.6,630.5,873.3,630.5,873.1z"/>
			<path class="st44" d="M652.6,838.7c0-0.1,0-0.2,0-0.3l0.1-0.2l-0.4-0.8l0,0l0,0c0-0.1,0-0.3,0-0.4v-0.2l-0.3-0.6l-0.3-0.1
				c-0.6-0.2-1.4-0.1-1.8,0.4c-0.1,0.2-0.2,0.4-0.2,0.6c0,0-0.1,0.1-0.1,0.1l-0.4,0.2l-0.3,0.7l0.4,0.9l0.9,0.3l0,0l0.1,0.1l0.3,0.3
				l1.1-0.2l0,0c0.4,0,0.7-0.2,0.9-0.5l0,0l0.1-0.2L652.6,838.7z"/>
			<path class="st44" d="M597.7,783.9c0.1-0.4,0-0.9-0.2-1.3l-0.3-0.3l-1.3,0.4l-0.1,0.3v0.1c-0.2,0.3-0.3,0.8-0.1,1.1
				c0.1,0.3,0.3,0.5,0.6,0.6c0.1,0.1,0.3,0.1,0.4,0.1h0.2l0.7-0.6V784L597.7,783.9z"/>
			<path class="st44" d="M610,758.1c-0.3-0.6-0.8-1.1-1.5-1.4c-0.6-0.2-1.2-0.2-1.7,0l-0.4,0.2v1h-0.1c0,0,0-0.1,0-0.1
				c0,0,0,0.1-0.1,0.2c-0.2,0.5-0.2,1.1,0,1.6l0,0.1l0.3,0.3h0.1c0.2,0.1,0.3,0.1,0.5,0.2c0.1,0.1,0.3,0.2,0.4,0.2
				c0.3,0.1,0.5,0.2,0.8,0.2h0.2l0.7-0.5l0.1-0.2c0.1-0.3,0.2-0.6,0.4-0.8l0.1-0.2l0.1-0.7L610,758.1z"/>
			<path class="st44" d="M604.3,755.3l-0.1-0.1c-0.1-0.1-0.2-0.3-0.3-0.4l-0.3-0.2l-0.8,0.2c-0.4,0-0.8,0.2-1,0.5h-0.2l-0.1,0.1
				c-0.3,0.3-0.5,0.7-0.5,1.1v0.2l0.4,0.6l0.2,0.1c0.3,0.1,0.5,0.1,0.8,0l0.5,0.3l0.2-0.1c0.4-0.1,0.8-0.4,1-0.8
				c0-0.1,0.1-0.1,0.1-0.2l0.2-0.2v-1L604.3,755.3z"/>
			<path class="st44" d="M573.2,811.8l0.1,0.1l0.7,0.2l0.2-0.1c0.1,0,0.3-0.1,0.4-0.2l0.2,0.1l1.2-0.8l-0.1-0.4c0-0.1,0-0.2,0.1-0.2
				c0.1-0.3,0.2-0.7,0.2-1c0-0.3-0.2-0.6-0.4-0.7v-0.7l-0.3-0.2l0.1-0.2l-0.4-0.9l-0.1-0.1l-0.1-0.2l-0.6-0.2
				c-0.1-0.2-0.3-0.4-0.5-0.5c-0.1-0.3-0.3-0.6-0.6-0.8l-0.1-0.1l-0.6-0.1l-0.1,0c-0.2,0.1-0.4,0.2-0.5,0.3l-0.5,0.1l-0.1,0.3
				c-0.1,0.2-0.2,0.5-0.3,0.7c-0.2,0.1-0.4,0.3-0.5,0.6c-0.1,0.3-0.1,0.6,0,0.8c0.1,0.3,0.3,0.5,0.6,0.6c0.2,0.1,0.5,0.1,0.7,0l0,0
				c0,0.1,0,0.1,0,0.2c0,0-0.1,0.1-0.1,0.2l-0.1,0.6l0.1,0.2c0,0.1,0.1,0.2,0.2,0.3v0.1v0.1c0.2,0.5,0.6,1,1.1,1.3
				C573,811.6,573.1,811.7,573.2,811.8z"/>
			<path class="st44" d="M565.7,840.2l1-0.1l0,0c0.2,0,0.4,0,0.6-0.1h0.1l0.9-0.1l0.2-0.3c0.3-0.5,0.3-1,0.1-1.5
				c-0.2-0.6-0.7-1.1-1.3-1.3c-0.1,0-0.3-0.1-0.4-0.1l-0.4-0.6h-0.3c-0.1,0-0.1,0-0.2,0l-0.1-0.1h-0.1l-0.2-0.1
				c-0.2-0.1-0.5-0.1-0.8-0.1c-0.3,0-0.5,0.1-0.7,0.3c-0.3,0-0.6,0.1-0.8,0.3l-0.2,0.2v0.4c-0.2,0.1-0.3,0.2-0.4,0.4l-0.2,0.3
				l0.3,0.8l0.1,0.2l-0.2,0.2l-0.1,0.2l0.2,0.9l0.2,0.1l0.3,0.2c0.1,0.1,0.1,0.2,0.2,0.3l0.2,0.2l0.3,0l0.2,0.3l1.2-0.3l0.1-0.3
				C565.6,840.5,565.7,840.4,565.7,840.2z"/>
			<path class="st44" d="M550.2,883.6c-0.2-0.1-0.5-0.1-0.8-0.1h-0.2l-0.5,0.7v0.3c-0.1,0.7,0.2,1.4,0.9,1.8l0.2,0.1l0.8-0.1
				l0.1-0.1c0.4-0.4,0.6-1,0.5-1.5C551,884.1,550.6,883.7,550.2,883.6z"/>
			<path class="st44" d="M594.5,803.7l0.4,0.1h0.1c0.5-0.1,1-0.6,1-1.1c0.1-0.6-0.2-1.2-0.8-1.4c-0.4-0.2-0.8-0.1-1.2,0.2l-0.3,0.2
				l0.1,0.7l0,0v0C593.7,802.9,594,803.4,594.5,803.7L594.5,803.7z"/>
			<path class="st44" d="M610.7,789.6v-0.2c0.2-0.2,0.3-0.6,0.3-0.9v-0.1l-0.3-0.5l-0.1,0c-0.2-0.3-0.5-0.5-0.9-0.5h-0.3l-0.4,0.4
				l-0.2-0.1c-0.1-0.1-0.3-0.1-0.4-0.1h-0.2l-0.7,0.5l-0.1,0.2c-0.2,0.5-0.1,1.1,0.3,1.5l0.2,0.3l0.8-0.2l0.1,0.1l0,0
				c0.1,0.1,0.2,0.2,0.4,0.2c0.4,0.2,0.9,0.1,1.2-0.3L610.7,789.6z"/>
			<path class="st44" d="M604.4,816.6c-0.1-0.4-0.4-0.7-0.7-0.9c-0.3-0.1-0.7-0.1-1,0.1l-0.3,0.2v0.3c-0.5,0.1-0.9,0.1-1.4,0.1h-0.3
				l-0.8,0.6v0.2l-0.1,0.1c-0.2,0.2-0.3,0.5-0.3,0.8c-0.1,0.3-0.1,0.5-0.2,0.8v0.2l0.2,0.5l0.1,0.1l0.1,0.1c0.1,0.2,0.2,0.3,0.4,0.5
				l0.2,0.2h0.4l0.2,0.1l0.3,0.1h0.2l0.3-0.2c0.1,0,0.1,0.1,0.2,0.1l0,0l0.4,0.1l0.8-0.5l0.1-0.2c0.1-0.2,0.2-0.4,0.3-0.6
				c0.2-0.3,0.3-0.6,0.4-1c0.3-0.1,0.5-0.2,0.7-0.4l0.3-0.3L604.4,816.6L604.4,816.6z"/>
			<path class="st44" d="M642.8,722.6v-0.4c0.2-0.2,0.3-0.6,0.3-0.9c-0.1-0.4-0.3-0.7-0.7-0.8l-0.2-0.1l-0.6,0.2l0,0
				c-0.3-0.1-0.7-0.1-1.1,0l-0.2,0.1l-0.3,1l0.1,0.2c0.2,0.4,0.6,0.8,1.1,1c0.1,0.1,0.3,0.1,0.5,0.1v0.5l0.5-0.6
				c0.1,0,0.2-0.1,0.3-0.1L642.8,722.6z"/>
			<path class="st44" d="M593.7,816.1l-0.2-0.1l-0.8,0.3l-0.1,0.2c-0.2,0.4-0.3,0.9-0.2,1.4c0.1,0.3,0.4,0.6,0.7,0.7l0.2,0.1l0.2,0
				l0.8-0.5l0.1-0.2C594.8,816.8,594.1,816.3,593.7,816.1z"/>
			<path class="st44" d="M583.3,833.6c-0.4-0.2-0.9-0.1-1.2,0.3l-0.2,0.2l0.1,1l0,0c0.1,0.4,0.3,0.7,0.6,0.9l0.2,0.1l0.9-0.2
				l0.1-0.2c0.2-0.4,0.3-0.8,0.2-1.3C583.9,834.1,583.6,833.8,583.3,833.6z"/>
		</g>
		<ellipse class="st40" cx="521.1" cy="744" rx="4" ry="4"/>
		<ellipse class="st37" cx="563.2" cy="698.1" rx="4" ry="4"/>
		<ellipse class="st38" cx="579.9" cy="722.3" rx="2.6" ry="2.6"/>
		<ellipse class="st37" cx="606.8" cy="737.7" rx="2" ry="2"/>
		<ellipse class="st40" cx="592.6" cy="758.4" rx="4.8" ry="4.9"/>
		<ellipse class="st38" cx="621" cy="754" rx="4.6" ry="4.7"/>
		<ellipse class="st38" cx="483.1" cy="754.2" rx="2.6" ry="2.6"/>
		<ellipse class="st39" cx="582.5" cy="704.1" rx="1.7" ry="1.7"/>
		<ellipse class="st39" cx="698.1" cy="760.8" rx="4.6" ry="4.7"/>
		<ellipse class="st45" cx="463.9" cy="765.5" rx="4.6" ry="4.7"/>
		<ellipse class="st39" cx="592.4" cy="729.2" rx="4.6" ry="4.7"/>
		<ellipse class="st41" cx="587.8" cy="825.9" rx="4.6" ry="4.7"/>
		<ellipse class="st45" cx="592.4" cy="729.2" rx="4.6" ry="4.7"/>
		<ellipse class="st41" cx="592.4" cy="729.2" rx="4.6" ry="4.7"/>
		<ellipse class="st37" cx="667.8" cy="685.1" rx="4.6" ry="4.7"/>
		<ellipse class="st38" cx="442.2" cy="701.1" rx="4.6" ry="4.7"/>
		<ellipse class="st37" cx="592.2" cy="831.1" rx="2.6" ry="2.6"/>
		<ellipse class="st39" cx="592.2" cy="831.1" rx="2.6" ry="2.6"/>
		<ellipse class="st39" cx="487.2" cy="812.5" rx="8.6" ry="8.8"/>
		<ellipse class="st45" cx="571.8" cy="781.7" rx="8.7" ry="8.8"/>
		<ellipse class="st41" cx="604.8" cy="717.3" rx="8.7" ry="8.8"/>
		<ellipse class="st39" cx="652.2" cy="731.2" rx="8.7" ry="8.8"/>
		<ellipse class="st45" cx="543.2" cy="720.1" rx="6.2" ry="6.3"/>
		<ellipse class="st41" cx="480.5" cy="713.6" rx="8.6" ry="8.8"/>
	</g>
</g>
</svg>
