<svg id="Camada_1" data-name="Camada 1" xmlns="http://www.w3.org/2000/svg" xmlns:xlink="http://www.w3.org/1999/xlink" viewBox="0 0 897.37 861.1"><defs><style>.cls-1{fill:url(#Gradiente_sem_nome_106);}.cls-2,.cls-3,.cls-4,.cls-5{fill:#bd5ffd;}.cls-2{opacity:0.19;}.cls-3{opacity:0.36;}.cls-4{opacity:0.39;}.cls-5{opacity:0.56;}.cls-6{fill:#8b22fb;}.cls-7{fill:url(#Gradiente_sem_nome_123);}.cls-8{fill:url(#Gradiente_sem_nome_123-2);}.cls-9{fill:#662d91;opacity:0.22;}.cls-10{fill:url(#Gradiente_sem_nome_123-3);}.cls-11{fill:url(#Gradiente_sem_nome_123-4);}</style><linearGradient id="Gradiente_sem_nome_106" x1="702.72" y1="51.8" x2="314.31" y2="724.55" gradientUnits="userSpaceOnUse"><stop offset="0" stop-color="#9b5ceb"/><stop offset="1" stop-color="#8b3ffb"/></linearGradient><linearGradient id="Gradiente_sem_nome_123" x1="871.01" y1="747.91" x2="244.85" y2="747.91" gradientUnits="userSpaceOnUse"><stop offset="0" stop-color="#8e5ded"/><stop offset="1" stop-color="#7712a8"/></linearGradient><linearGradient id="Gradiente_sem_nome_123-2" x1="625.62" y1="384.42" x2="432.4" y2="719.1" xlink:href="#Gradiente_sem_nome_123"/><linearGradient id="Gradiente_sem_nome_123-3" x1="98.88" y1="638.69" x2="140.96" y2="565.8" xlink:href="#Gradiente_sem_nome_123"/><linearGradient id="Gradiente_sem_nome_123-4" x1="372.12" y1="895.09" x2="159.68" y2="895.09" xlink:href="#Gradiente_sem_nome_123"/></defs><title>planeta4</title><ellipse class="cls-1" cx="508.51" cy="388.17" rx="388.86" ry="388.17"/><path class="cls-2" d="M545.7,123.18c-8.85-2.89-17.64,4-24.32,10.51-16,15.5-31.64,31.69-42.67,51s-17.1,42.25-12.51,64c7.05,33.42,38.1,61.75,32.83,95.49-2,13.07-9.4,27.12-2.77,38.57,4.49,7.77,14,11.08,23,12.14s18.15.56,26.67,3.43c31,10.44,35.27,57.29,65.21,70.39,10.23,4.47,21.81,4.13,32.91,5.42s23,5,28.86,14.53c10.4,17-5,40.64,3.77,58.59,6,12.3,21.56,17.19,35.17,15.69s26.11-7.9,39-12.62c20.38-7.5,44.63-10.44,62.71,1.58,8.87,5.89,16.72,15.4,27.37,15.15,10-.23,17.31-9,23.61-16.8,8.14-10,17.24-19.78,28.95-25.26s26.58-5.87,36.8,2c17.69-28.21,3.64-65.49,10.82-98,1.76-8,4.83-15.7,5.75-23.82,2.27-20.07-8.63-38.91-15.31-58-4.7-13.39-7.47-27.62-14.63-39.87-10.45-17.92-29.05-29.61-41.29-46.35-8.33-11.4-13.48-24.84-21.63-36.37-11.11-15.71-27.18-27.1-42.93-38.17-32.9-23.1-66.2-46.35-103.5-61.37s-79.5-21.29-117.93-9.45c-9.88,3-19.58,7.28-29.9,8-13.25.92-28.32-3.59-38.73,4.65" transform="translate(-73 -109.45)"/><path class="cls-3" d="M781.45,469.08c20.23,2.66,41,2.16,60.56,8.13,12.77,3.92,25.25,10.63,38.59,9.71,16.65-1.14,30.49-14.41,37.23-29.65s7.75-32.3,8.65-48.94c1.61-29.62,3.14-59.92-5.29-88.37-15.24-51.4-59.84-87.84-102.53-120.35-58.58-44.59-127.9-92.84-205.74-75-49.39,11.29-102.54,53.34-103.58,108-.52,27.42,12.48,48.58,32.07,66.64,10.39,9.57,26.39,13.58,34.84,25.37,9.9,13.81,8,31.95,17.48,46.36C626.11,420.14,725.5,461.73,781.45,469.08Z" transform="translate(-73 -109.45)"/><path class="cls-4" d="M638.09,187.9c-16.52-5.32-36,.43-47,13.86s-12.7,33.66-4.17,48.75c15.08,26.67,54.33,32.14,69,59,9.78,18,5.88,41.08,16,58.83,11.08,19.34,35,26.44,56.68,31.87L839,427.9c17.24,4.32,38.16,7.7,50.52-5,7-7.25,9.11-17.92,9.53-28,2.44-59.5-40.82-110.3-84-151.4-34.8-33.15-73.93-65.79-121.37-73.77-38.38-6.46-79.42,5-108.88,30.39" transform="translate(-73 -109.45)"/><path class="cls-5" d="M656.82,254.39c9.5,23.65,44.44,24.56,60.46,44.4,17,21.07,7.35,56.59,27.1,75.14,8,7.54,19.26,10.4,30,13l67.38,16.31c3.45.84,7.2,1.66,10.45.23,4-1.78,5.93-6.39,6.94-10.67,8.06-34.2-15.6-67-37.83-94.24Q798,270,774.6,241.4c-16.84-20.63-42.13-48.83-72-45.7C678.06,198.28,646.27,228.1,656.82,254.39Z" transform="translate(-73 -109.45)"/><path class="cls-2" d="M220.85,389c1-15.4,2.24-31.38,9.76-44.87s23.29-23.72,38.24-19.77c19.37,5.12,27.94,30.08,47.11,35.9,28.86,8.77,51-30.56,81-33.66,23.84-2.46,43.27,18.54,55.55,39.08s23.48,44.28,45.36,54.06c21.45,9.58,48.38,3.09,68.07,15.89,18.61,12.1,26.28,38.91,47.57,45.24,23.14,6.88,46-15.28,70.05-13.26,22.51,1.88,38.32,23.94,60.15,29.74,24.06,6.39,48.47-8.21,73.31-9.87,20.34-1.35,40.13,6,59.18,13.3,27.61,10.54,56.81,22.27,74,46.23s15.17,64-11.5,76.75c-22.56,10.76-50.06-2.34-74.11,4.48-19.77,5.6-33.17,23.26-48.36,37.07C777,701,717.47,712.86,667.43,694.93c-15.89-5.69-30.92-14.14-47.5-17.33s-33.92-1.05-49.63-6.85c-11.87-4.38-21.65-12.9-31.35-21a753.5,753.5,0,0,0-139.38-92.19c-3.51-1.8-7.38-3.63-11.26-2.86-7.87,1.54-9.87,11.68-10.16,19.68l-3.21,88.22c-13.1-10.22-26-20.73-39.62-30.16-17.63,56.35-103.73,4.73-118.12-30C192.57,543,216.71,450.37,220.85,389Z" transform="translate(-73 -109.45)"/><path class="cls-2" d="M418.91,621.21c3.72.83,6.55,3.82,8.78,6.9,12.7,17.48,15.82,43.95,35.68,52.53,17.2,7.43,38.28-3.36,55.45,4.16,11.19,4.91,17.76,16.3,25.64,25.63s20.41,17.52,31.7,12.83c3.42-1.42,6.36-3.93,9.91-5,9.54-2.87,18.82,5.61,23.33,14.48s7,19.24,14.36,25.91c3.22,2.9,8.36,4.82,11.75,2.11,2.2-1.76,2.77-4.82,3.17-7.61,1.84-13,3.09-26.38,9.22-38s18.7-21,31.63-18.79C709.93,701.5,713,759,743.66,756c22.93-2.28,28.65-38.47,51.2-43.22,14.52-3.06,27.43,8.58,39.37,17.37s31,14.42,39.93,2.61c.94,26.87-29,43.92-55.41,49s-56.3,5.77-75.48,24.64c-8.61,8.48-14.33,20.11-24.75,26.22-24.06,14.11-53.83-9.22-81.57-6.2-25,2.72-44.52,26.59-69.69,27.09-26.32.53-46.65-24.49-72.62-28.73-15.54-2.55-32.13,2.57-46.89-2.89-13.44-5-22.31-17.55-29.89-29.68-14.08-22.54-57.18-80.2-46.54-109.7,6.91-19.18,25.24-8.23,33.05-19.86C409.23,655.4,396.07,616.11,418.91,621.21Z" transform="translate(-73 -109.45)"/><path class="cls-6" d="M316,419.52c20.8-9.58,21.78-45.86,44.41-49.43,10.59-1.67,20.79,5.74,26.45,14.83s8,19.79,11.66,29.85c7.72,21.22,24.58,41.72,47.14,43.42,8.92.68,17.89-1.67,26.79-.79,18.82,1.85,33.35,17.54,42.49,34.07s14.94,35,26.42,50c8.52,11.14,23.31,20.49,36.07,14.62,19.49-9,14.54-42.71,33.59-52.58,15.55-8.06,33.18,6.4,43.25,20.7s21.68,31.68,39.2,31.54c27.85-.22,42.73-45.09,70-39.36,14,3,23,19.12,37.33,20.22,15.46,1.19,27.26-15.87,42.76-16.36s26.12,15.37,39.51,23.5c11.08,6.72,24.48,8.1,36.82,12.07s25,12.3,27,25.08c.42,2.68.23,5.72-1.69,7.64-1.48,1.49-3.67,2-5.74,2.36a203,203,0,0,1-82.15-1.56c-7.32-1.67-14.72-3.75-22.2-3.11-24.43,2.1-36.38,29.67-52.72,47.92a85.3,85.3,0,0,1-71.26,27.43c-29.47-3.1-58.69-21.62-86.82-12.32-9.33,3.09-17.8,9.14-27.58,10-11,1-21.39-4.74-31-10.29L480,599.33c-27.53-16-56.41-33.26-71.56-61.21-4.07-7.5-7.55-16.17-15.1-20.17-12.08-6.4-27.38,3.76-32.24,16.52s-2.78,26.93-2.42,40.58c.16,6.1-.26,12.78-4.34,17.32-8.9,9.88-25.33,1.53-34.26-8.32s-19.63-22.31-32.58-19.24C272.79,568.32,269.9,588.57,258,598c-9.42,7.47-23.52,6.69-34,.81-49.24-27.62-67-143.15-47.42-193.35,7.76-19.93,43-63.62,66.67-62.28C276.15,345,264.88,443.08,316,419.52Z" transform="translate(-73 -109.45)"/><path class="cls-7" d="M336.46,720.75c5.18-2.89,7.62-8.89,11.23-13.6,11.44-14.9,37.75-14.24,48.42,1.22A142,142,0,0,0,397.53,638c28.72,3.17,44.71,33.48,59,58.54s41,51.44,67.83,40.8c3.84-1.51,7.57-3.79,11.69-3.74,15.44.18,14,27.09,27.64,34.25,13,6.82,26.3-9.26,30.27-23.37s8.12-31.88,22.43-35.16c16.86-3.85,28.35,16,35.09,31.91s22.8,34.13,37.78,25.51c11.51-6.62,13.49-26.19,26.64-28,13.76-1.94,21.23,18.18,35,20.28,19.37,3,33.87-30.94,51.12-21.66,5.32,2.86,8,9.17,13.26,12.2,8.94,5.17,19.77-1.25,29-5.84s23.76-5.29,26.7,4.6a374,374,0,0,1-145.93,35.78c-13.17.49-26.54.32-39.25,3.83-20.94,5.78-47,19.91-60.89,3.25-3-3.55-4.85-8.24-8.9-10.48-7.56-4.19-16.65,3-20.45,10.78s-5.67,17.07-12.51,22.35c-10.4,8-25.84,2-35.63-6.79s-17.89-20.3-30.26-24.75c-8.17-2.94-17.21-2.35-25.57-4.67-19.83-5.48-33.1-26.27-53.35-30-23.06-4.19-44.48,17.08-49.21,40s2.56,46.41,9.77,68.67c-15,8.73-46.54-24.18-62.24-31.52-41.6-19.45-79.22-41.38-89.77-87.28C231.75,672,307.33,737,336.46,720.75Z" transform="translate(-73 -109.45)"/><path class="cls-8" d="M316,419.52c20.8-9.58,21.78-45.86,44.41-49.43,10.59-1.67,20.79,5.74,26.45,14.83s8,19.79,11.66,29.85c7.72,21.22,24.58,41.72,47.14,43.42,8.92.68,17.89-1.67,26.79-.79,18.82,1.85,33.35,17.54,42.49,34.07s14.94,35,26.42,50c8.52,11.14,23.31,20.49,36.07,14.62,19.49-9,14.54-42.71,33.59-52.58,15.55-8.06,33.18,6.4,43.25,20.7s21.68,31.68,39.2,31.54c27.85-.22,42.73-45.09,70-39.36,14,3,23,19.12,37.33,20.22,15.46,1.19,27.26-15.87,42.76-16.36s26.12,15.37,39.51,23.5c11.08,6.72,24.48,8.1,36.82,12.07s25,12.3,27,25.08c.42,2.68.23,5.72-1.69,7.64-1.48,1.49-3.67,2-5.74,2.36a203,203,0,0,1-82.15-1.56c-7.32-1.67-14.72-3.75-22.2-3.11-24.43,2.1-36.38,29.67-52.72,47.92a85.3,85.3,0,0,1-71.26,27.43c-29.47-3.1-58.69-21.62-86.82-12.32-9.33,3.09-17.8,9.14-27.58,10-11,1-21.39-4.74-31-10.29L480,599.33c-27.53-16-56.41-33.26-71.56-61.21-4.07-7.5-7.55-16.17-15.1-20.17-12.08-6.4-27.38,3.76-32.24,16.52s-2.78,26.93-2.42,40.58c.16,6.1-.26,12.78-4.34,17.32-8.9,9.88-25.33,1.53-34.26-8.32s-19.63-22.31-32.58-19.24C272.79,568.32,269.9,588.57,258,598c-9.42,7.47-23.52,6.69-34,.81-49.24-27.62-67-143.15-47.42-193.35,7.76-19.93,43-63.62,66.67-62.28C276.15,345,264.88,443.08,316,419.52Z" transform="translate(-73 -109.45)"/><path class="cls-9" d="M336.56,465.81c17.74,61.45,52.35,116.52,87.74,169.84,40.95,61.7,85.28,124.05,148.24,163.16a278.64,278.64,0,0,0,166.22,40.83c-39,41.45-103.94,42.24-160.48,35.55a1071.16,1071.16,0,0,1-153-29.55c-37-10-74.37-22.45-103.83-46.87-27.6-22.87-46.26-54.62-62-86.78a755.14,755.14,0,0,1-60.63-175.61c-5.29-24.95-9.33-50.41-7.94-75.88,2.06-37.73,16-73.92,33.62-107.34,24.51-46.42,56.34-88.46,90.77-128,11.59-13.29,33.62-48,50.5-54.17,26.73-9.76,16.66,7.89,8.35,22.78C327.69,277,309.76,372.94,336.56,465.81Z" transform="translate(-73 -109.45)"/><path class="cls-10" d="M147.2,658.09c3.07-2.34,7-69,5-74.18-9.35-24.27-42.27-39.45-64-23.13C67.41,576.39,69,601.46,86.69,616.36c9.26,7.78,21.17,9.45,30.33,18.48C123.74,641.48,131.58,670,147.2,658.09Z" transform="translate(-73 -109.45)"/><path class="cls-11" d="M179,826.84l10.21-3c-4.54-5-12.9-5.37-18.69-1.82s-9.18,10.15-10.34,16.83c-2.68,15.43,5.17,30.82,15,43s21.94,22.63,30.24,35.92c8.79,14.07,13.56,31.53,27,41.31,6.68,4.87,14.85,7.26,23,8.85a145,145,0,0,0,99.53-16.61c39-22.56,3.49-72-25.58-86-21-10.06-46-15.77-68.43-21.47C242,839.06,197.62,821.33,179,826.84Z" transform="translate(-73 -109.45)"/></svg>